<?xml version="1.0" encoding="iso-8859-1"?>
<!DOCTYPE svg PUBLIC "-//W3C//DTD SVG 1.1//EN" "http://www.w3.org/Graphics/SVG/1.1/DTD/svg11.dtd">
<svg xmlns="http://www.w3.org/2000/svg" width="1023.24" height="1748.85" viewBox="0 0 1023.24 1748.85">
  <defs>
    <style>
      .a {
        fill: #050007;
      }

      .a, .b {
        fill-rule: evenodd;
      }

      .b {
        fill: #ffd200;
      }
    </style>
  </defs>
  <title>convert_longer2</title>
  <g>
    <polygon class="a" points="22.38 1748.85 22.38 1748.85 0 1748.85 16.15 1712.49 38.53 1712.49 22.38 1748.85"/>
    <polygon class="b" points="67.14 1748.85 67.14 1748.85 44.76 1748.85 60.91 1712.49 83.29 1712.49 67.14 1748.85"/>
    <polygon class="a" points="111.9 1748.85 111.9 1748.85 89.52 1748.85 105.67 1712.49 128.05 1712.49 111.9 1748.85"/>
    <polygon class="b" points="156.66 1748.85 156.66 1748.85 134.28 1748.85 150.43 1712.49 172.81 1712.49 156.66 1748.85"/>
    <polygon class="a" points="201.42 1748.85 201.42 1748.85 179.04 1748.85 195.19 1712.49 217.57 1712.49 201.42 1748.85"/>
    <polygon class="b" points="246.18 1748.85 246.18 1748.85 223.8 1748.85 239.95 1712.49 262.33 1712.49 246.18 1748.85"/>
    <polygon class="a" points="290.94 1748.85 290.94 1748.85 268.56 1748.85 284.71 1712.49 307.09 1712.49 290.94 1748.85"/>
    <polygon class="b" points="335.7 1748.85 335.7 1748.85 313.32 1748.85 329.47 1712.49 351.85 1712.49 335.7 1748.85"/>
    <polygon class="a" points="380.46 1748.85 380.46 1748.85 358.08 1748.85 374.23 1712.49 396.61 1712.49 380.46 1748.85"/>
    <polygon class="b" points="425.22 1748.85 425.22 1748.85 402.84 1748.85 418.99 1712.49 441.37 1712.49 425.22 1748.85"/>
    <polygon class="a" points="469.98 1748.85 469.98 1748.85 447.6 1748.85 463.75 1712.49 486.13 1712.49 469.98 1748.85"/>
    <polygon class="b" points="514.74 1748.85 514.74 1748.85 492.36 1748.85 508.51 1712.49 530.89 1712.49 514.74 1748.85"/>
    <polygon class="a" points="559.5 1748.85 559.5 1748.85 537.12 1748.85 553.27 1712.49 575.65 1712.49 559.5 1748.85"/>
    <polygon class="b" points="604.25 1748.85 604.25 1748.85 581.88 1748.85 598.03 1712.49 620.41 1712.49 604.25 1748.85"/>
    <polygon class="a" points="649.01 1748.85 649.01 1748.85 626.63 1748.85 642.79 1712.49 665.17 1712.49 649.01 1748.85"/>
    <polygon class="b" points="693.77 1748.85 693.77 1748.85 671.39 1748.85 687.55 1712.49 709.92 1712.49 693.77 1748.85"/>
    <polygon class="a" points="738.53 1748.85 738.53 1748.85 716.15 1748.85 732.3 1712.49 754.68 1712.49 738.53 1748.85"/>
    <polygon class="b" points="783.29 1748.85 783.29 1748.85 760.91 1748.85 777.07 1712.49 799.45 1712.49 783.29 1748.85"/>
    <polygon class="a" points="828.05 1748.85 828.05 1748.85 805.67 1748.85 821.82 1712.49 844.2 1712.49 828.05 1748.85"/>
    <polygon class="b" points="872.81 1748.85 872.81 1748.85 850.43 1748.85 866.58 1712.49 888.96 1712.49 872.81 1748.85"/>
    <polygon class="a" points="917.57 1748.85 917.57 1748.85 895.19 1748.85 911.34 1712.49 933.72 1712.49 917.57 1748.85"/>
    <polygon class="b" points="962.33 1748.85 962.33 1748.85 939.95 1748.85 956.1 1712.49 978.48 1712.49 962.33 1748.85"/>
    <polygon class="a" points="1007.09 1748.85 984.71 1748.85 1000.86 1712.49 1023.24 1712.49 1007.09 1748.85"/>
    <polygon class="a" points="22.38 33.27 22.38 33.27 0 33.27 16.15 0 38.53 0 22.38 33.27"/>
    <polygon class="b" points="67.14 33.27 67.14 33.27 44.76 33.27 60.91 0 83.29 0 67.14 33.27"/>
    <polygon class="a" points="111.9 33.27 111.9 33.27 89.52 33.27 105.67 0 128.05 0 111.9 33.27"/>
    <polygon class="b" points="156.66 33.27 156.66 33.27 134.28 33.27 150.43 0 172.81 0 156.66 33.27"/>
    <polygon class="a" points="201.42 33.27 201.42 33.27 179.04 33.27 195.19 0 217.57 0 201.42 33.27"/>
    <polygon class="b" points="246.18 33.27 246.18 33.27 223.8 33.27 239.95 0 262.33 0 246.18 33.27"/>
    <polygon class="a" points="290.94 33.27 290.94 33.27 268.56 33.27 284.71 0 307.09 0 290.94 33.27"/>
    <polygon class="b" points="335.7 33.27 335.7 33.27 313.32 33.27 329.47 0 351.85 0 335.7 33.27"/>
    <polygon class="a" points="380.46 33.27 380.46 33.27 358.08 33.27 374.23 0 396.61 0 380.46 33.27"/>
    <polygon class="b" points="425.22 33.27 425.22 33.27 402.84 33.27 418.99 0 441.37 0 425.22 33.27"/>
    <polygon class="a" points="469.98 33.27 469.98 33.27 447.6 33.27 463.75 0 486.13 0 469.98 33.27"/>
    <polygon class="b" points="514.74 33.27 514.74 33.27 492.36 33.27 508.51 0 530.89 0 514.74 33.27"/>
    <polygon class="a" points="559.5 33.27 559.5 33.27 537.12 33.27 553.27 0 575.65 0 559.5 33.27"/>
    <polygon class="b" points="604.25 33.27 604.25 33.27 581.88 33.27 598.03 0 620.41 0 604.25 33.27"/>
    <polygon class="a" points="649.01 33.27 649.01 33.27 626.63 33.27 642.79 0 665.17 0 649.01 33.27"/>
    <polygon class="b" points="693.77 33.27 693.77 33.27 671.39 33.27 687.55 0 709.92 0 693.77 33.27"/>
    <polygon class="a" points="738.53 33.27 738.53 33.27 716.15 33.27 732.3 0 754.68 0 738.53 33.27"/>
    <polygon class="b" points="783.29 33.27 783.29 33.27 760.91 33.27 777.07 0 799.45 0 783.29 33.27"/>
    <polygon class="a" points="828.05 33.27 828.05 33.27 805.67 33.27 821.82 0 844.2 0 828.05 33.27"/>
    <polygon class="b" points="872.81 33.27 872.81 33.27 850.43 33.27 866.58 0 888.96 0 872.81 33.27"/>
    <polygon class="a" points="917.57 33.27 917.57 33.27 895.19 33.27 911.34 0 933.72 0 917.57 33.27"/>
    <polygon class="b" points="962.33 33.27 962.33 33.27 939.95 33.27 956.1 0 978.48 0 962.33 33.27"/>
    <polygon class="a" points="1007.09 33.27 984.71 33.27 1000.86 0 1023.24 0 1007.09 33.27"/>
    <polygon class="b" points="0.63 251.89 0.63 251.89 0.63 229.51 33.9 245.66 33.9 268.04 0.63 251.89"/>
    <polygon class="a" points="0.63 296.65 0.63 296.65 0.63 274.27 33.9 290.42 33.9 312.8 0.63 296.65"/>
    <polygon class="b" points="0.63 341.41 0.63 341.41 0.63 319.03 33.9 335.18 33.9 357.56 0.63 341.41"/>
    <polygon class="a" points="0.63 386.17 0.63 386.17 0.63 363.79 33.9 379.94 33.9 402.32 0.63 386.17"/>
    <polygon class="b" points="0.63 971 0.63 971 0.63 948.62 33.9 964.77 33.9 987.15 0.63 971"/>
    <polygon class="a" points="0.63 1015.76 0.63 1015.76 0.63 993.38 33.9 1009.53 33.9 1031.91 0.63 1015.76"/>
    <polygon class="b" points="0.63 1060.52 0.63 1060.52 0.63 1038.14 33.9 1054.29 33.9 1076.67 0.63 1060.52"/>
    <polygon class="a" points="0.63 1105.28 0.63 1105.28 0.63 1082.9 33.9 1099.05 33.9 1121.43 0.63 1105.28"/>
    <polygon class="b" points="0.63 1150.04 0.63 1150.04 0.63 1127.66 33.9 1143.81 33.9 1166.19 0.63 1150.04"/>
    <polygon class="a" points="0.63 1194.8 0.63 1194.8 0.63 1172.42 33.9 1188.57 33.9 1210.95 0.63 1194.8"/>
    <polygon class="b" points="0.63 1239.56 0.63 1239.56 0.63 1217.18 33.9 1233.33 33.9 1255.71 0.63 1239.56"/>
    <polygon class="a" points="0.63 1284.32 0.63 1284.32 0.63 1261.94 33.9 1278.09 33.9 1300.47 0.63 1284.32"/>
    <polygon class="b" points="0.63 1329.08 0.63 1329.08 0.63 1306.7 33.9 1322.85 33.9 1345.23 0.63 1329.08"/>
    <polygon class="a" points="0.63 1373.84 0.63 1373.84 0.63 1351.46 33.9 1367.61 33.9 1389.99 0.63 1373.84"/>
    <polygon class="b" points="0.63 1418.6 0.63 1418.6 0.63 1396.22 33.9 1412.37 33.9 1434.75 0.63 1418.6"/>
    <polygon class="a" points="0.63 1463.36 0.63 1463.36 0.63 1440.98 33.9 1457.13 33.9 1479.51 0.63 1463.36"/>
    <polygon class="b" points="0.63 1508.12 0.63 1508.12 0.63 1485.74 33.9 1501.89 33.9 1524.27 0.63 1508.12"/>
    <polygon class="a" points="0.63 1552.88 0.63 1552.88 0.63 1530.5 33.9 1546.65 33.9 1569.03 0.63 1552.88"/>
    <polygon class="b" points="0.63 1597.64 0.63 1597.64 0.63 1575.26 33.9 1591.41 33.9 1613.79 0.63 1597.64"/>
    <polygon class="a" points="0.63 1642.4 0.63 1642.4 0.63 1620.02 33.9 1636.17 33.9 1658.55 0.63 1642.4"/>
    <polygon class="b" points="0.63 1687.16 0.63 1687.16 0.63 1664.78 33.9 1680.93 33.9 1703.31 0.63 1687.16"/>
    <polygon class="b" points="987.34 251.89 987.34 251.89 987.34 229.51 1020.61 245.66 1020.61 268.04 987.34 251.89"/>
    <polygon class="a" points="987.34 296.65 987.34 296.65 987.34 274.27 1020.61 290.42 1020.61 312.8 987.34 296.65"/>
    <polygon class="b" points="987.34 341.41 987.34 341.41 987.34 319.03 1020.61 335.18 1020.61 357.56 987.34 341.41"/>
    <polygon class="a" points="987.34 386.17 987.34 386.17 987.34 363.79 1020.61 379.94 1020.61 402.32 987.34 386.17"/>
    <polygon class="b" points="987.34 971 987.34 971 987.34 948.62 1020.61 964.77 1020.61 987.15 987.34 971"/>
    <polygon class="a" points="987.34 1015.76 987.34 1015.76 987.34 993.38 1020.61 1009.53 1020.61 1031.91 987.34 1015.76"/>
    <polygon class="b" points="987.34 1060.52 987.34 1060.52 987.34 1038.14 1020.61 1054.29 1020.61 1076.67 987.34 1060.52"/>
    <polygon class="a" points="987.34 1105.28 987.34 1105.28 987.34 1082.9 1020.61 1099.05 1020.61 1121.43 987.34 1105.28"/>
    <polygon class="b" points="0.63 69.89 0.63 69.89 0.63 47.52 33.9 63.67 33.9 86.05 0.63 69.89"/>
    <polygon class="a" points="0.63 114.65 0.63 114.65 0.63 92.27 33.9 108.43 33.9 130.81 0.63 114.65"/>
    <polygon class="b" points="0.63 159.41 0.63 159.41 0.63 137.03 33.9 153.19 33.9 175.56 0.63 159.41"/>
    <polygon class="a" points="0.63 204.17 0.63 204.17 0.63 181.79 33.9 197.94 33.9 220.32 0.63 204.17"/>
    <polygon class="b" points="987.34 69.89 987.34 69.89 987.34 47.52 1020.61 63.67 1020.61 86.05 987.34 69.89"/>
    <polygon class="a" points="987.34 114.65 987.34 114.65 987.34 92.27 1020.61 108.43 1020.61 130.81 987.34 114.65"/>
    <polygon class="b" points="987.34 159.41 987.34 159.41 987.34 137.03 1020.61 153.19 1020.61 175.56 987.34 159.41"/>
    <polygon class="a" points="987.34 204.17 987.34 204.17 987.34 181.79 1020.61 197.94 1020.61 220.32 987.34 204.17"/>
    <polygon class="b" points="0.63 791.97 0.63 791.97 0.63 769.59 33.9 785.74 33.9 808.12 0.63 791.97"/>
    <polygon class="a" points="0.63 836.73 0.63 836.73 0.63 814.35 33.9 830.5 33.9 852.88 0.63 836.73"/>
    <polygon class="b" points="0.63 881.48 0.63 881.48 0.63 859.1 33.9 875.26 33.9 897.63 0.63 881.48"/>
    <polygon class="a" points="0.63 926.24 0.63 926.24 0.63 903.86 33.9 920.02 33.9 942.39 0.63 926.24"/>
    <polygon class="b" points="987.34 791.97 987.34 791.97 987.34 769.59 1020.61 785.74 1020.61 808.12 987.34 791.97"/>
    <polygon class="a" points="987.34 836.73 987.34 836.73 987.34 814.35 1020.61 830.5 1020.61 852.88 987.34 836.73"/>
    <polygon class="b" points="987.34 881.48 987.34 881.48 987.34 859.1 1020.61 875.26 1020.61 897.63 987.34 881.48"/>
    <polygon class="a" points="987.34 926.24 987.34 926.24 987.34 903.86 1020.61 920.02 1020.61 942.39 987.34 926.24"/>
    <polygon class="b" points="0.63 430.93 0.63 430.93 0.63 408.55 33.9 424.7 33.9 447.08 0.63 430.93"/>
    <polygon class="a" points="0.63 475.69 0.63 475.69 0.63 453.31 33.9 469.46 33.9 491.84 0.63 475.69"/>
    <polygon class="b" points="0.63 520.45 0.63 520.45 0.63 498.07 33.9 514.22 33.9 536.6 0.63 520.45"/>
    <polygon class="a" points="0.63 565.21 0.63 565.21 0.63 542.83 33.9 558.98 33.9 581.36 0.63 565.21"/>
    <polygon class="b" points="0.63 609.97 0.63 609.97 0.63 587.59 33.9 603.74 33.9 626.12 0.63 609.97"/>
    <polygon class="a" points="0.63 654.73 0.63 654.73 0.63 632.35 33.9 648.5 33.9 670.88 0.63 654.73"/>
    <polygon class="b" points="0.63 699.49 0.63 699.49 0.63 677.11 33.9 693.26 33.9 715.64 0.63 699.49"/>
    <polygon class="a" points="0.63 744.25 0.63 744.25 0.63 721.87 33.9 738.02 33.9 760.4 0.63 744.25"/>
    <polygon class="b" points="987.34 430.93 987.34 430.93 987.34 408.55 1020.61 424.7 1020.61 447.08 987.34 430.93"/>
    <polygon class="a" points="987.34 475.69 987.34 475.69 987.34 453.31 1020.61 469.46 1020.61 491.84 987.34 475.69"/>
    <polygon class="b" points="987.34 520.45 987.34 520.45 987.34 498.07 1020.61 514.22 1020.61 536.6 987.34 520.45"/>
    <polygon class="a" points="987.34 565.21 987.34 565.21 987.34 542.83 1020.61 558.98 1020.61 581.36 987.34 565.21"/>
    <polygon class="b" points="987.34 609.97 987.34 609.97 987.34 587.59 1020.61 603.74 1020.61 626.12 987.34 609.97"/>
    <polygon class="a" points="987.34 654.73 987.34 654.73 987.34 632.35 1020.61 648.5 1020.61 670.88 987.34 654.73"/>
    <polygon class="b" points="987.34 699.49 987.34 699.49 987.34 677.11 1020.61 693.26 1020.61 715.64 987.34 699.49"/>
    <polygon class="a" points="987.34 744.25 987.34 744.25 987.34 721.87 1020.61 738.02 1020.61 760.4 987.34 744.25"/>
    <polygon class="b" points="987.34 1150.04 987.34 1150.04 987.34 1127.66 1020.61 1143.81 1020.61 1166.19 987.34 1150.04"/>
    <polygon class="a" points="987.34 1194.8 987.34 1194.8 987.34 1172.42 1020.61 1188.57 1020.61 1210.95 987.34 1194.8"/>
    <polygon class="b" points="987.34 1239.56 987.34 1239.56 987.34 1217.18 1020.61 1233.33 1020.61 1255.71 987.34 1239.56"/>
    <polygon class="a" points="987.34 1284.32 987.34 1284.32 987.34 1261.94 1020.61 1278.09 1020.61 1300.47 987.34 1284.32"/>
    <polygon class="b" points="987.34 1329.08 987.34 1329.08 987.34 1306.7 1020.61 1322.85 1020.61 1345.23 987.34 1329.08"/>
    <polygon class="a" points="987.34 1373.84 987.34 1373.84 987.34 1351.46 1020.61 1367.61 1020.61 1389.99 987.34 1373.84"/>
    <polygon class="b" points="987.34 1418.6 987.34 1418.6 987.34 1396.22 1020.61 1412.37 1020.61 1434.75 987.34 1418.6"/>
    <polygon class="a" points="987.34 1463.36 987.34 1463.36 987.34 1440.98 1020.61 1457.13 1020.61 1479.51 987.34 1463.36"/>
    <polygon class="b" points="987.34 1508.12 987.34 1508.12 987.34 1485.74 1020.61 1501.89 1020.61 1524.27 987.34 1508.12"/>
    <polygon class="a" points="987.34 1552.88 987.34 1552.88 987.34 1530.5 1020.61 1546.65 1020.61 1569.03 987.34 1552.88"/>
    <polygon class="b" points="987.34 1597.64 987.34 1597.64 987.34 1575.26 1020.61 1591.41 1020.61 1613.79 987.34 1597.64"/>
    <polygon class="a" points="987.34 1642.4 987.34 1642.4 987.34 1620.02 1020.61 1636.17 1020.61 1658.55 987.34 1642.4"/>
    <polygon class="b" points="987.34 1687.16 987.34 1687.16 987.34 1664.78 1020.61 1680.93 1020.61 1703.31 987.34 1687.16"/>
  </g>
</svg>
