<?xml version="1.0" encoding="iso-8859-1"?>
<!DOCTYPE svg PUBLIC "-//W3C//DTD SVG 1.1//EN" "http://www.w3.org/Graphics/SVG/1.1/DTD/svg11.dtd">
<svg xmlns="http://www.w3.org/2000/svg" width="1023.24" height="1023.67" viewBox="0 0 1023.24 1023.67">
  <defs>
    <style>
      .a {
        fill: #050007;
      }

      .a, .b {
        fill-rule: evenodd;
      }

      .b {
        fill: #ffd200;
      }
    </style>
  </defs>
  <title>convert_cube</title>
  <g>
    <polygon class="a" points="22.38 1023.67 22.38 1023.67 0 1023.67 16.15 987.31 38.53 987.31 22.38 1023.67"/>
    <polygon class="b" points="67.14 1023.67 67.14 1023.67 44.76 1023.67 60.91 987.31 83.29 987.31 67.14 1023.67"/>
    <polygon class="a" points="111.9 1023.67 111.9 1023.67 89.52 1023.67 105.67 987.31 128.05 987.31 111.9 1023.67"/>
    <polygon class="b" points="156.66 1023.67 156.66 1023.67 134.28 1023.67 150.43 987.31 172.81 987.31 156.66 1023.67"/>
    <polygon class="a" points="201.42 1023.67 201.42 1023.67 179.04 1023.67 195.19 987.31 217.57 987.31 201.42 1023.67"/>
    <polygon class="b" points="246.18 1023.67 246.18 1023.67 223.8 1023.67 239.95 987.31 262.33 987.31 246.18 1023.67"/>
    <polygon class="a" points="290.94 1023.67 290.94 1023.67 268.56 1023.67 284.71 987.31 307.09 987.31 290.94 1023.67"/>
    <polygon class="b" points="335.7 1023.67 335.7 1023.67 313.32 1023.67 329.47 987.31 351.85 987.31 335.7 1023.67"/>
    <polygon class="a" points="380.46 1023.67 380.46 1023.67 358.08 1023.67 374.23 987.31 396.61 987.31 380.46 1023.67"/>
    <polygon class="b" points="425.22 1023.67 425.22 1023.67 402.84 1023.67 418.99 987.31 441.37 987.31 425.22 1023.67"/>
    <polygon class="a" points="469.98 1023.67 469.98 1023.67 447.6 1023.67 463.75 987.31 486.13 987.31 469.98 1023.67"/>
    <polygon class="b" points="514.74 1023.67 514.74 1023.67 492.36 1023.67 508.51 987.31 530.89 987.31 514.74 1023.67"/>
    <polygon class="a" points="559.5 1023.67 559.5 1023.67 537.12 1023.67 553.27 987.31 575.65 987.31 559.5 1023.67"/>
    <polygon class="b" points="604.25 1023.67 604.25 1023.67 581.88 1023.67 598.03 987.31 620.41 987.31 604.25 1023.67"/>
    <polygon class="a" points="649.01 1023.67 649.01 1023.67 626.63 1023.67 642.79 987.31 665.17 987.31 649.01 1023.67"/>
    <polygon class="b" points="693.77 1023.67 693.77 1023.67 671.39 1023.67 687.55 987.31 709.92 987.31 693.77 1023.67"/>
    <polygon class="a" points="738.53 1023.67 738.53 1023.67 716.15 1023.67 732.3 987.31 754.68 987.31 738.53 1023.67"/>
    <polygon class="b" points="783.29 1023.67 783.29 1023.67 760.91 1023.67 777.07 987.31 799.45 987.31 783.29 1023.67"/>
    <polygon class="a" points="828.05 1023.67 828.05 1023.67 805.67 1023.67 821.82 987.31 844.2 987.31 828.05 1023.67"/>
    <polygon class="b" points="872.81 1023.67 872.81 1023.67 850.43 1023.67 866.58 987.31 888.96 987.31 872.81 1023.67"/>
    <polygon class="a" points="917.57 1023.67 917.57 1023.67 895.19 1023.67 911.34 987.31 933.72 987.31 917.57 1023.67"/>
    <polygon class="b" points="962.33 1023.67 962.33 1023.67 939.95 1023.67 956.1 987.31 978.48 987.31 962.33 1023.67"/>
    <polygon class="a" points="1007.09 1023.67 984.71 1023.67 1000.86 987.31 1023.24 987.31 1007.09 1023.67"/>
    <polygon class="a" points="22.38 33.27 22.38 33.27 0 33.27 16.15 0 38.53 0 22.38 33.27"/>
    <polygon class="b" points="67.14 33.27 67.14 33.27 44.76 33.27 60.91 0 83.29 0 67.14 33.27"/>
    <polygon class="a" points="111.9 33.27 111.9 33.27 89.52 33.27 105.67 0 128.05 0 111.9 33.27"/>
    <polygon class="b" points="156.66 33.27 156.66 33.27 134.28 33.27 150.43 0 172.81 0 156.66 33.27"/>
    <polygon class="a" points="201.42 33.27 201.42 33.27 179.04 33.27 195.19 0 217.57 0 201.42 33.27"/>
    <polygon class="b" points="246.18 33.27 246.18 33.27 223.8 33.27 239.95 0 262.33 0 246.18 33.27"/>
    <polygon class="a" points="290.94 33.27 290.94 33.27 268.56 33.27 284.71 0 307.09 0 290.94 33.27"/>
    <polygon class="b" points="335.7 33.27 335.7 33.27 313.32 33.27 329.47 0 351.85 0 335.7 33.27"/>
    <polygon class="a" points="380.46 33.27 380.46 33.27 358.08 33.27 374.23 0 396.61 0 380.46 33.27"/>
    <polygon class="b" points="425.22 33.27 425.22 33.27 402.84 33.27 418.99 0 441.37 0 425.22 33.27"/>
    <polygon class="a" points="469.98 33.27 469.98 33.27 447.6 33.27 463.75 0 486.13 0 469.98 33.27"/>
    <polygon class="b" points="514.74 33.27 514.74 33.27 492.36 33.27 508.51 0 530.89 0 514.74 33.27"/>
    <polygon class="a" points="559.5 33.27 559.5 33.27 537.12 33.27 553.27 0 575.65 0 559.5 33.27"/>
    <polygon class="b" points="604.25 33.27 604.25 33.27 581.88 33.27 598.03 0 620.41 0 604.25 33.27"/>
    <polygon class="a" points="649.01 33.27 649.01 33.27 626.63 33.27 642.79 0 665.17 0 649.01 33.27"/>
    <polygon class="b" points="693.77 33.27 693.77 33.27 671.39 33.27 687.55 0 709.92 0 693.77 33.27"/>
    <polygon class="a" points="738.53 33.27 738.53 33.27 716.15 33.27 732.3 0 754.68 0 738.53 33.27"/>
    <polygon class="b" points="783.29 33.27 783.29 33.27 760.91 33.27 777.07 0 799.45 0 783.29 33.27"/>
    <polygon class="a" points="828.05 33.27 828.05 33.27 805.67 33.27 821.82 0 844.2 0 828.05 33.27"/>
    <polygon class="b" points="872.81 33.27 872.81 33.27 850.43 33.27 866.58 0 888.96 0 872.81 33.27"/>
    <polygon class="a" points="917.57 33.27 917.57 33.27 895.19 33.27 911.34 0 933.72 0 917.57 33.27"/>
    <polygon class="b" points="962.33 33.27 962.33 33.27 939.95 33.27 956.1 0 978.48 0 962.33 33.27"/>
    <polygon class="a" points="1007.09 33.27 984.71 33.27 1000.86 0 1023.24 0 1007.09 33.27"/>
    <polygon class="b" points="0.63 66.78 0.63 66.78 0.63 44.4 33.9 60.55 33.9 82.93 0.63 66.78"/>
    <polygon class="a" points="0.63 111.54 0.63 111.54 0.63 89.16 33.9 105.31 33.9 127.69 0.63 111.54"/>
    <polygon class="b" points="0.63 156.3 0.63 156.3 0.63 133.92 33.9 150.07 33.9 172.45 0.63 156.3"/>
    <polygon class="a" points="0.63 201.06 0.63 201.06 0.63 178.68 33.9 194.83 33.9 217.21 0.63 201.06"/>
    <polygon class="b" points="0.63 245.82 0.63 245.82 0.63 223.44 33.9 239.59 33.9 261.97 0.63 245.82"/>
    <polygon class="a" points="0.63 290.58 0.63 290.58 0.63 268.2 33.9 284.35 33.9 306.73 0.63 290.58"/>
    <polygon class="b" points="0.63 335.34 0.63 335.34 0.63 312.96 33.9 329.11 33.9 351.49 0.63 335.34"/>
    <polygon class="a" points="0.63 380.1 0.63 380.1 0.63 357.72 33.9 373.87 33.9 396.25 0.63 380.1"/>
    <polygon class="b" points="0.63 424.86 0.63 424.86 0.63 402.48 33.9 418.63 33.9 441.01 0.63 424.86"/>
    <polygon class="a" points="0.63 469.62 0.63 469.62 0.63 447.24 33.9 463.39 33.9 485.77 0.63 469.62"/>
    <polygon class="b" points="0.63 514.38 0.63 514.38 0.63 492 33.9 508.15 33.9 530.53 0.63 514.38"/>
    <polygon class="a" points="0.63 559.14 0.63 559.14 0.63 536.75 33.9 552.91 33.9 575.29 0.63 559.14"/>
    <polygon class="b" points="0.63 603.89 0.63 603.89 0.63 581.51 33.9 597.67 33.9 620.05 0.63 603.89"/>
    <polygon class="a" points="0.63 648.65 0.63 648.65 0.63 626.27 33.9 642.43 33.9 664.81 0.63 648.65"/>
    <polygon class="b" points="0.63 693.41 0.63 693.41 0.63 671.03 33.9 687.19 33.9 709.57 0.63 693.41"/>
    <polygon class="a" points="0.63 738.17 0.63 738.17 0.63 715.79 33.9 731.95 33.9 754.33 0.63 738.17"/>
    <polygon class="b" points="0.63 782.93 0.63 782.93 0.63 760.55 33.9 776.71 33.9 799.09 0.63 782.93"/>
    <polygon class="a" points="0.63 827.69 0.63 827.69 0.63 805.31 33.9 821.47 33.9 843.84 0.63 827.69"/>
    <polygon class="b" points="0.63 872.45 0.63 872.45 0.63 850.07 33.9 866.22 33.9 888.6 0.63 872.45"/>
    <polygon class="a" points="0.63 917.21 0.63 917.21 0.63 894.83 33.9 910.98 33.9 933.36 0.63 917.21"/>
    <polygon class="b" points="0.63 961.97 0.63 961.97 0.63 939.59 33.9 955.74 33.9 978.12 0.63 961.97"/>
    <polygon class="b" points="987.34 66.78 987.34 66.78 987.34 44.4 1020.61 60.55 1020.61 82.93 987.34 66.78"/>
    <polygon class="a" points="987.34 111.54 987.34 111.54 987.34 89.16 1020.61 105.31 1020.61 127.69 987.34 111.54"/>
    <polygon class="b" points="987.34 156.3 987.34 156.3 987.34 133.92 1020.61 150.07 1020.61 172.45 987.34 156.3"/>
    <polygon class="a" points="987.34 201.06 987.34 201.06 987.34 178.68 1020.61 194.83 1020.61 217.21 987.34 201.06"/>
    <polygon class="b" points="987.34 245.82 987.34 245.82 987.34 223.44 1020.61 239.59 1020.61 261.97 987.34 245.82"/>
    <polygon class="a" points="987.34 290.58 987.34 290.58 987.34 268.2 1020.61 284.35 1020.61 306.73 987.34 290.58"/>
    <polygon class="b" points="987.34 335.34 987.34 335.34 987.34 312.96 1020.61 329.11 1020.61 351.49 987.34 335.34"/>
    <polygon class="a" points="987.34 380.1 987.34 380.1 987.34 357.72 1020.61 373.87 1020.61 396.25 987.34 380.1"/>
    <polygon class="b" points="987.34 424.86 987.34 424.86 987.34 402.48 1020.61 418.63 1020.61 441.01 987.34 424.86"/>
    <polygon class="a" points="987.34 469.62 987.34 469.62 987.34 447.24 1020.61 463.39 1020.61 485.77 987.34 469.62"/>
    <polygon class="b" points="987.34 514.38 987.34 514.38 987.34 492 1020.61 508.15 1020.61 530.53 987.34 514.38"/>
    <polygon class="a" points="987.34 559.14 987.34 559.14 987.34 536.75 1020.61 552.91 1020.61 575.29 987.34 559.14"/>
    <polygon class="b" points="987.34 603.89 987.34 603.89 987.34 581.51 1020.61 597.67 1020.61 620.05 987.34 603.89"/>
    <polygon class="a" points="987.34 648.65 987.34 648.65 987.34 626.27 1020.61 642.43 1020.61 664.81 987.34 648.65"/>
    <polygon class="b" points="987.34 693.41 987.34 693.41 987.34 671.03 1020.61 687.19 1020.61 709.57 987.34 693.41"/>
    <polygon class="a" points="987.34 738.17 987.34 738.17 987.34 715.79 1020.61 731.95 1020.61 754.33 987.34 738.17"/>
    <polygon class="b" points="987.34 782.93 987.34 782.93 987.34 760.55 1020.61 776.71 1020.61 799.09 987.34 782.93"/>
    <polygon class="a" points="987.34 827.69 987.34 827.69 987.34 805.31 1020.61 821.47 1020.61 843.84 987.34 827.69"/>
    <polygon class="b" points="987.34 872.45 987.34 872.45 987.34 850.07 1020.61 866.22 1020.61 888.6 987.34 872.45"/>
    <polygon class="a" points="987.34 917.21 987.34 917.21 987.34 894.83 1020.61 910.98 1020.61 933.36 987.34 917.21"/>
    <polygon class="b" points="987.34 961.97 987.34 961.97 987.34 939.59 1020.61 955.74 1020.61 978.12 987.34 961.97"/>
  </g>
</svg>
