<?xml version="1.0" encoding="iso-8859-1"?>
<!DOCTYPE svg PUBLIC "-//W3C//DTD SVG 1.1//EN" "http://www.w3.org/Graphics/SVG/1.1/DTD/svg11.dtd">
<svg xmlns="http://www.w3.org/2000/svg" width="1023.24" height="1393.42" viewBox="0 0 1023.24 1393.42">
  <defs>
    <style>
      .a {
        fill: #050007;
      }

      .a, .b {
        fill-rule: evenodd;
      }

      .b {
        fill: #ffd200;
      }
    </style>
  </defs>
  <title>convert_longer3</title>
  <g>
    <polygon class="a" points="22.38 1393.42 22.38 1393.42 0 1393.42 16.15 1357.06 38.53 1357.06 22.38 1393.42"/>
    <polygon class="b" points="67.14 1393.42 67.14 1393.42 44.76 1393.42 60.91 1357.06 83.29 1357.06 67.14 1393.42"/>
    <polygon class="a" points="111.9 1393.42 111.9 1393.42 89.52 1393.42 105.67 1357.06 128.05 1357.06 111.9 1393.42"/>
    <polygon class="b" points="156.66 1393.42 156.66 1393.42 134.28 1393.42 150.43 1357.06 172.81 1357.06 156.66 1393.42"/>
    <polygon class="a" points="201.42 1393.42 201.42 1393.42 179.04 1393.42 195.19 1357.06 217.57 1357.06 201.42 1393.42"/>
    <polygon class="b" points="246.18 1393.42 246.18 1393.42 223.8 1393.42 239.95 1357.06 262.33 1357.06 246.18 1393.42"/>
    <polygon class="a" points="290.94 1393.42 290.94 1393.42 268.56 1393.42 284.71 1357.06 307.09 1357.06 290.94 1393.42"/>
    <polygon class="b" points="335.7 1393.42 335.7 1393.42 313.32 1393.42 329.47 1357.06 351.85 1357.06 335.7 1393.42"/>
    <polygon class="a" points="380.46 1393.42 380.46 1393.42 358.08 1393.42 374.23 1357.06 396.61 1357.06 380.46 1393.42"/>
    <polygon class="b" points="425.22 1393.42 425.22 1393.42 402.84 1393.42 418.99 1357.06 441.37 1357.06 425.22 1393.42"/>
    <polygon class="a" points="469.98 1393.42 469.98 1393.42 447.6 1393.42 463.75 1357.06 486.13 1357.06 469.98 1393.42"/>
    <polygon class="b" points="514.74 1393.42 514.74 1393.42 492.36 1393.42 508.51 1357.06 530.89 1357.06 514.74 1393.42"/>
    <polygon class="a" points="559.5 1393.42 559.5 1393.42 537.12 1393.42 553.27 1357.06 575.65 1357.06 559.5 1393.42"/>
    <polygon class="b" points="604.25 1393.42 604.25 1393.42 581.88 1393.42 598.03 1357.06 620.41 1357.06 604.25 1393.42"/>
    <polygon class="a" points="649.01 1393.42 649.01 1393.42 626.63 1393.42 642.79 1357.06 665.17 1357.06 649.01 1393.42"/>
    <polygon class="b" points="693.77 1393.42 693.77 1393.42 671.39 1393.42 687.55 1357.06 709.92 1357.06 693.77 1393.42"/>
    <polygon class="a" points="738.53 1393.42 738.53 1393.42 716.15 1393.42 732.3 1357.06 754.68 1357.06 738.53 1393.42"/>
    <polygon class="b" points="783.29 1393.42 783.29 1393.42 760.91 1393.42 777.07 1357.06 799.45 1357.06 783.29 1393.42"/>
    <polygon class="a" points="828.05 1393.42 828.05 1393.42 805.67 1393.42 821.82 1357.06 844.2 1357.06 828.05 1393.42"/>
    <polygon class="b" points="872.81 1393.42 872.81 1393.42 850.43 1393.42 866.58 1357.06 888.96 1357.06 872.81 1393.42"/>
    <polygon class="a" points="917.57 1393.42 917.57 1393.42 895.19 1393.42 911.34 1357.06 933.72 1357.06 917.57 1393.42"/>
    <polygon class="b" points="962.33 1393.42 962.33 1393.42 939.95 1393.42 956.1 1357.06 978.48 1357.06 962.33 1393.42"/>
    <polygon class="a" points="1007.09 1393.42 984.71 1393.42 1000.86 1357.06 1023.24 1357.06 1007.09 1393.42"/>
    <polygon class="a" points="22.38 33.27 22.38 33.27 0 33.27 16.15 0 38.53 0 22.38 33.27"/>
    <polygon class="b" points="67.14 33.27 67.14 33.27 44.76 33.27 60.91 0 83.29 0 67.14 33.27"/>
    <polygon class="a" points="111.9 33.27 111.9 33.27 89.52 33.27 105.67 0 128.05 0 111.9 33.27"/>
    <polygon class="b" points="156.66 33.27 156.66 33.27 134.28 33.27 150.43 0 172.81 0 156.66 33.27"/>
    <polygon class="a" points="201.42 33.27 201.42 33.27 179.04 33.27 195.19 0 217.57 0 201.42 33.27"/>
    <polygon class="b" points="246.18 33.27 246.18 33.27 223.8 33.27 239.95 0 262.33 0 246.18 33.27"/>
    <polygon class="a" points="290.94 33.27 290.94 33.27 268.56 33.27 284.71 0 307.09 0 290.94 33.27"/>
    <polygon class="b" points="335.7 33.27 335.7 33.27 313.32 33.27 329.47 0 351.85 0 335.7 33.27"/>
    <polygon class="a" points="380.46 33.27 380.46 33.27 358.08 33.27 374.23 0 396.61 0 380.46 33.27"/>
    <polygon class="b" points="425.22 33.27 425.22 33.27 402.84 33.27 418.99 0 441.37 0 425.22 33.27"/>
    <polygon class="a" points="469.98 33.27 469.98 33.27 447.6 33.27 463.75 0 486.13 0 469.98 33.27"/>
    <polygon class="b" points="514.74 33.27 514.74 33.27 492.36 33.27 508.51 0 530.89 0 514.74 33.27"/>
    <polygon class="a" points="559.5 33.27 559.5 33.27 537.12 33.27 553.27 0 575.65 0 559.5 33.27"/>
    <polygon class="b" points="604.25 33.27 604.25 33.27 581.88 33.27 598.03 0 620.41 0 604.25 33.27"/>
    <polygon class="a" points="649.01 33.27 649.01 33.27 626.63 33.27 642.79 0 665.17 0 649.01 33.27"/>
    <polygon class="b" points="693.77 33.27 693.77 33.27 671.39 33.27 687.55 0 709.92 0 693.77 33.27"/>
    <polygon class="a" points="738.53 33.27 738.53 33.27 716.15 33.27 732.3 0 754.68 0 738.53 33.27"/>
    <polygon class="b" points="783.29 33.27 783.29 33.27 760.91 33.27 777.07 0 799.45 0 783.29 33.27"/>
    <polygon class="a" points="828.05 33.27 828.05 33.27 805.67 33.27 821.82 0 844.2 0 828.05 33.27"/>
    <polygon class="b" points="872.81 33.27 872.81 33.27 850.43 33.27 866.58 0 888.96 0 872.81 33.27"/>
    <polygon class="a" points="917.57 33.27 917.57 33.27 895.19 33.27 911.34 0 933.72 0 917.57 33.27"/>
    <polygon class="b" points="962.33 33.27 962.33 33.27 939.95 33.27 956.1 0 978.48 0 962.33 33.27"/>
    <polygon class="a" points="1007.09 33.27 984.71 33.27 1000.86 0 1023.24 0 1007.09 33.27"/>
    <polygon class="b" points="0.63 610.07 0.63 610.07 0.63 587.69 33.9 603.84 33.9 626.22 0.63 610.07"/>
    <polygon class="a" points="0.63 654.83 0.63 654.83 0.63 632.45 33.9 648.6 33.9 670.98 0.63 654.83"/>
    <polygon class="b" points="0.63 699.59 0.63 699.59 0.63 677.21 33.9 693.36 33.9 715.74 0.63 699.59"/>
    <polygon class="a" points="0.63 744.35 0.63 744.35 0.63 721.97 33.9 738.12 33.9 760.5 0.63 744.35"/>
    <polygon class="b" points="0.63 789.11 0.63 789.11 0.63 766.73 33.9 782.88 33.9 805.26 0.63 789.11"/>
    <polygon class="a" points="0.63 833.87 0.63 833.87 0.63 811.49 33.9 827.64 33.9 850.02 0.63 833.87"/>
    <polygon class="b" points="0.63 878.63 0.63 878.63 0.63 856.25 33.9 872.4 33.9 894.78 0.63 878.63"/>
    <polygon class="a" points="0.63 923.39 0.63 923.39 0.63 901.01 33.9 917.16 33.9 939.54 0.63 923.39"/>
    <polygon class="b" points="0.63 968.15 0.63 968.15 0.63 945.77 33.9 961.92 33.9 984.3 0.63 968.15"/>
    <polygon class="a" points="0.63 1012.91 0.63 1012.91 0.63 990.53 33.9 1006.68 33.9 1029.06 0.63 1012.91"/>
    <polygon class="b" points="0.63 1057.67 0.63 1057.67 0.63 1035.29 33.9 1051.44 33.9 1073.82 0.63 1057.67"/>
    <polygon class="a" points="0.63 1102.42 0.63 1102.42 0.63 1080.05 33.9 1096.2 33.9 1118.58 0.63 1102.42"/>
    <polygon class="b" points="0.63 1147.18 0.63 1147.18 0.63 1124.81 33.9 1140.96 33.9 1163.34 0.63 1147.18"/>
    <polygon class="a" points="0.63 1191.94 0.63 1191.94 0.63 1169.56 33.9 1185.72 33.9 1208.1 0.63 1191.94"/>
    <polygon class="b" points="0.63 1236.7 0.63 1236.7 0.63 1214.32 33.9 1230.47 33.9 1252.86 0.63 1236.7"/>
    <polygon class="a" points="0.63 1281.46 0.63 1281.46 0.63 1259.08 33.9 1275.23 33.9 1297.62 0.63 1281.46"/>
    <polygon class="b" points="0.63 1326.22 0.63 1326.22 0.63 1303.84 33.9 1319.99 33.9 1342.38 0.63 1326.22"/>
    <polygon class="b" points="987.34 610.07 987.34 610.07 987.34 587.69 1020.61 603.84 1020.61 626.22 987.34 610.07"/>
    <polygon class="a" points="987.34 654.83 987.34 654.83 987.34 632.45 1020.61 648.6 1020.61 670.98 987.34 654.83"/>
    <polygon class="b" points="987.34 699.59 987.34 699.59 987.34 677.21 1020.61 693.36 1020.61 715.74 987.34 699.59"/>
    <polygon class="a" points="987.34 744.35 987.34 744.35 987.34 721.97 1020.61 738.12 1020.61 760.5 987.34 744.35"/>
    <polygon class="b" points="0.63 431.03 0.63 431.03 0.63 408.65 33.9 424.8 33.9 447.18 0.63 431.03"/>
    <polygon class="a" points="0.63 475.79 0.63 475.79 0.63 453.41 33.9 469.56 33.9 491.94 0.63 475.79"/>
    <polygon class="b" points="0.63 520.55 0.63 520.55 0.63 498.17 33.9 514.32 33.9 536.7 0.63 520.55"/>
    <polygon class="a" points="0.63 565.31 0.63 565.31 0.63 542.93 33.9 559.08 33.9 581.46 0.63 565.31"/>
    <polygon class="b" points="987.34 431.03 987.34 431.03 987.34 408.65 1020.61 424.8 1020.61 447.18 987.34 431.03"/>
    <polygon class="a" points="987.34 475.79 987.34 475.79 987.34 453.41 1020.61 469.56 1020.61 491.94 987.34 475.79"/>
    <polygon class="b" points="987.34 520.55 987.34 520.55 987.34 498.17 1020.61 514.32 1020.61 536.7 987.34 520.55"/>
    <polygon class="a" points="987.34 565.31 987.34 565.31 987.34 542.93 1020.61 559.08 1020.61 581.46 987.34 565.31"/>
    <polygon class="b" points="0.63 70 0.63 70 0.63 47.62 33.9 63.77 33.9 86.15 0.63 70"/>
    <polygon class="a" points="0.63 114.76 0.63 114.76 0.63 92.38 33.9 108.53 33.9 130.91 0.63 114.76"/>
    <polygon class="b" points="0.63 159.51 0.63 159.51 0.63 137.13 33.9 153.29 33.9 175.67 0.63 159.51"/>
    <polygon class="a" points="0.63 204.28 0.63 204.28 0.63 181.9 33.9 198.05 33.9 220.43 0.63 204.28"/>
    <polygon class="b" points="0.63 249.03 0.63 249.03 0.63 226.66 33.9 242.81 33.9 265.19 0.63 249.03"/>
    <polygon class="a" points="0.63 293.79 0.63 293.79 0.63 271.41 33.9 287.57 33.9 309.94 0.63 293.79"/>
    <polygon class="b" points="0.63 338.55 0.63 338.55 0.63 316.17 33.9 332.32 33.9 354.7 0.63 338.55"/>
    <polygon class="a" points="0.63 383.31 0.63 383.31 0.63 360.93 33.9 377.08 33.9 399.46 0.63 383.31"/>
    <polygon class="b" points="987.34 70 987.34 70 987.34 47.62 1020.61 63.77 1020.61 86.15 987.34 70"/>
    <polygon class="a" points="987.34 114.76 987.34 114.76 987.34 92.38 1020.61 108.53 1020.61 130.91 987.34 114.76"/>
    <polygon class="b" points="987.34 159.51 987.34 159.51 987.34 137.13 1020.61 153.29 1020.61 175.67 987.34 159.51"/>
    <polygon class="a" points="987.34 204.28 987.34 204.28 987.34 181.9 1020.61 198.05 1020.61 220.43 987.34 204.28"/>
    <polygon class="b" points="987.34 249.03 987.34 249.03 987.34 226.66 1020.61 242.81 1020.61 265.19 987.34 249.03"/>
    <polygon class="a" points="987.34 293.79 987.34 293.79 987.34 271.41 1020.61 287.57 1020.61 309.94 987.34 293.79"/>
    <polygon class="b" points="987.34 338.55 987.34 338.55 987.34 316.17 1020.61 332.32 1020.61 354.7 987.34 338.55"/>
    <polygon class="a" points="987.34 383.31 987.34 383.31 987.34 360.93 1020.61 377.08 1020.61 399.46 987.34 383.31"/>
    <polygon class="b" points="987.34 789.11 987.34 789.11 987.34 766.73 1020.61 782.88 1020.61 805.26 987.34 789.11"/>
    <polygon class="a" points="987.34 833.87 987.34 833.87 987.34 811.49 1020.61 827.64 1020.61 850.02 987.34 833.87"/>
    <polygon class="b" points="987.34 878.63 987.34 878.63 987.34 856.25 1020.61 872.4 1020.61 894.78 987.34 878.63"/>
    <polygon class="a" points="987.34 923.39 987.34 923.39 987.34 901.01 1020.61 917.16 1020.61 939.54 987.34 923.39"/>
    <polygon class="b" points="987.34 968.15 987.34 968.15 987.34 945.77 1020.61 961.92 1020.61 984.3 987.34 968.15"/>
    <polygon class="a" points="987.34 1012.91 987.34 1012.91 987.34 990.53 1020.61 1006.68 1020.61 1029.06 987.34 1012.91"/>
    <polygon class="b" points="987.34 1057.67 987.34 1057.67 987.34 1035.29 1020.61 1051.44 1020.61 1073.82 987.34 1057.67"/>
    <polygon class="a" points="987.34 1102.42 987.34 1102.42 987.34 1080.05 1020.61 1096.2 1020.61 1118.58 987.34 1102.42"/>
    <polygon class="b" points="987.34 1147.18 987.34 1147.18 987.34 1124.81 1020.61 1140.96 1020.61 1163.34 987.34 1147.18"/>
    <polygon class="a" points="987.34 1191.94 987.34 1191.94 987.34 1169.56 1020.61 1185.72 1020.61 1208.1 987.34 1191.94"/>
    <polygon class="b" points="987.34 1236.7 987.34 1236.7 987.34 1214.32 1020.61 1230.47 1020.61 1252.86 987.34 1236.7"/>
    <polygon class="a" points="987.34 1281.46 987.34 1281.46 987.34 1259.08 1020.61 1275.23 1020.61 1297.62 987.34 1281.46"/>
    <polygon class="b" points="987.34 1326.22 987.34 1326.22 987.34 1303.84 1020.61 1319.99 1020.61 1342.38 987.34 1326.22"/>
  </g>
</svg>
