<?xml version="1.0" encoding="iso-8859-1"?>
<!DOCTYPE svg PUBLIC "-//W3C//DTD SVG 1.1//EN" "http://www.w3.org/Graphics/SVG/1.1/DTD/svg11.dtd">
<svg xmlns="http://www.w3.org/2000/svg" width="1023.24" height="1481.06" viewBox="0 0 1023.24 1481.06">
  <defs>
    <style>
      .a {
        fill: #050007;
      }

      .a, .b {
        fill-rule: evenodd;
      }

      .b {
        fill: #ffd200;
      }
    </style>
  </defs>
  <title>convert_longer4</title>
  <g>
    <polygon class="a" points="22.38 1481.06 22.38 1481.06 0 1481.06 16.15 1444.7 38.53 1444.7 22.38 1481.06"/>
    <polygon class="b" points="67.14 1481.06 67.14 1481.06 44.76 1481.06 60.91 1444.7 83.29 1444.7 67.14 1481.06"/>
    <polygon class="a" points="111.9 1481.06 111.9 1481.06 89.52 1481.06 105.67 1444.7 128.05 1444.7 111.9 1481.06"/>
    <polygon class="b" points="156.66 1481.06 156.66 1481.06 134.28 1481.06 150.43 1444.7 172.81 1444.7 156.66 1481.06"/>
    <polygon class="a" points="201.42 1481.06 201.42 1481.06 179.04 1481.06 195.19 1444.7 217.57 1444.7 201.42 1481.06"/>
    <polygon class="b" points="246.18 1481.06 246.18 1481.06 223.8 1481.06 239.95 1444.7 262.33 1444.7 246.18 1481.06"/>
    <polygon class="a" points="290.94 1481.06 290.94 1481.06 268.56 1481.06 284.71 1444.7 307.09 1444.7 290.94 1481.06"/>
    <polygon class="b" points="335.7 1481.06 335.7 1481.06 313.32 1481.06 329.47 1444.7 351.85 1444.7 335.7 1481.06"/>
    <polygon class="a" points="380.46 1481.06 380.46 1481.06 358.08 1481.06 374.23 1444.7 396.61 1444.7 380.46 1481.06"/>
    <polygon class="b" points="425.22 1481.06 425.22 1481.06 402.84 1481.06 418.99 1444.7 441.37 1444.7 425.22 1481.06"/>
    <polygon class="a" points="469.98 1481.06 469.98 1481.06 447.6 1481.06 463.75 1444.7 486.13 1444.7 469.98 1481.06"/>
    <polygon class="b" points="514.74 1481.06 514.74 1481.06 492.36 1481.06 508.51 1444.7 530.89 1444.7 514.74 1481.06"/>
    <polygon class="a" points="559.5 1481.06 559.5 1481.06 537.12 1481.06 553.27 1444.7 575.65 1444.7 559.5 1481.06"/>
    <polygon class="b" points="604.25 1481.06 604.25 1481.06 581.88 1481.06 598.03 1444.7 620.41 1444.7 604.25 1481.06"/>
    <polygon class="a" points="649.01 1481.06 649.01 1481.06 626.63 1481.06 642.79 1444.7 665.17 1444.7 649.01 1481.06"/>
    <polygon class="b" points="693.77 1481.06 693.77 1481.06 671.39 1481.06 687.55 1444.7 709.92 1444.7 693.77 1481.06"/>
    <polygon class="a" points="738.53 1481.06 738.53 1481.06 716.15 1481.06 732.3 1444.7 754.68 1444.7 738.53 1481.06"/>
    <polygon class="b" points="783.29 1481.06 783.29 1481.06 760.91 1481.06 777.07 1444.7 799.45 1444.7 783.29 1481.06"/>
    <polygon class="a" points="828.05 1481.06 828.05 1481.06 805.67 1481.06 821.82 1444.7 844.2 1444.7 828.05 1481.06"/>
    <polygon class="b" points="872.81 1481.06 872.81 1481.06 850.43 1481.06 866.58 1444.7 888.96 1444.7 872.81 1481.06"/>
    <polygon class="a" points="917.57 1481.06 917.57 1481.06 895.19 1481.06 911.34 1444.7 933.72 1444.7 917.57 1481.06"/>
    <polygon class="b" points="962.33 1481.06 962.33 1481.06 939.95 1481.06 956.1 1444.7 978.48 1444.7 962.33 1481.06"/>
    <polygon class="a" points="1007.09 1481.06 984.71 1481.06 1000.86 1444.7 1023.24 1444.7 1007.09 1481.06"/>
    <polygon class="a" points="22.38 33.27 22.38 33.27 0 33.27 16.15 0 38.53 0 22.38 33.27"/>
    <polygon class="b" points="67.14 33.27 67.14 33.27 44.76 33.27 60.91 0 83.29 0 67.14 33.27"/>
    <polygon class="a" points="111.9 33.27 111.9 33.27 89.52 33.27 105.67 0 128.05 0 111.9 33.27"/>
    <polygon class="b" points="156.66 33.27 156.66 33.27 134.28 33.27 150.43 0 172.81 0 156.66 33.27"/>
    <polygon class="a" points="201.42 33.27 201.42 33.27 179.04 33.27 195.19 0 217.57 0 201.42 33.27"/>
    <polygon class="b" points="246.18 33.27 246.18 33.27 223.8 33.27 239.95 0 262.33 0 246.18 33.27"/>
    <polygon class="a" points="290.94 33.27 290.94 33.27 268.56 33.27 284.71 0 307.09 0 290.94 33.27"/>
    <polygon class="b" points="335.7 33.27 335.7 33.27 313.32 33.27 329.47 0 351.85 0 335.7 33.27"/>
    <polygon class="a" points="380.46 33.27 380.46 33.27 358.08 33.27 374.23 0 396.61 0 380.46 33.27"/>
    <polygon class="b" points="425.22 33.27 425.22 33.27 402.84 33.27 418.99 0 441.37 0 425.22 33.27"/>
    <polygon class="a" points="469.98 33.27 469.98 33.27 447.6 33.27 463.75 0 486.13 0 469.98 33.27"/>
    <polygon class="b" points="514.74 33.27 514.74 33.27 492.36 33.27 508.51 0 530.89 0 514.74 33.27"/>
    <polygon class="a" points="559.5 33.27 559.5 33.27 537.12 33.27 553.27 0 575.65 0 559.5 33.27"/>
    <polygon class="b" points="604.25 33.27 604.25 33.27 581.88 33.27 598.03 0 620.41 0 604.25 33.27"/>
    <polygon class="a" points="649.01 33.27 649.01 33.27 626.63 33.27 642.79 0 665.17 0 649.01 33.27"/>
    <polygon class="b" points="693.77 33.27 693.77 33.27 671.39 33.27 687.55 0 709.92 0 693.77 33.27"/>
    <polygon class="a" points="738.53 33.27 738.53 33.27 716.15 33.27 732.3 0 754.68 0 738.53 33.27"/>
    <polygon class="b" points="783.29 33.27 783.29 33.27 760.91 33.27 777.07 0 799.45 0 783.29 33.27"/>
    <polygon class="a" points="828.05 33.27 828.05 33.27 805.67 33.27 821.82 0 844.2 0 828.05 33.27"/>
    <polygon class="b" points="872.81 33.27 872.81 33.27 850.43 33.27 866.58 0 888.96 0 872.81 33.27"/>
    <polygon class="a" points="917.57 33.27 917.57 33.27 895.19 33.27 911.34 0 933.72 0 917.57 33.27"/>
    <polygon class="b" points="962.33 33.27 962.33 33.27 939.95 33.27 956.1 0 978.48 0 962.33 33.27"/>
    <polygon class="a" points="1007.09 33.27 984.71 33.27 1000.86 0 1023.24 0 1007.09 33.27"/>
    <polygon class="b" points="0.63 697.71 0.63 697.71 0.63 675.33 33.9 691.48 33.9 713.86 0.63 697.71"/>
    <polygon class="a" points="0.63 742.47 0.63 742.47 0.63 720.09 33.9 736.24 33.9 758.62 0.63 742.47"/>
    <polygon class="b" points="0.63 787.23 0.63 787.23 0.63 764.85 33.9 781 33.9 803.38 0.63 787.23"/>
    <polygon class="a" points="0.63 831.99 0.63 831.99 0.63 809.61 33.9 825.76 33.9 848.14 0.63 831.99"/>
    <polygon class="b" points="0.63 876.75 0.63 876.75 0.63 854.37 33.9 870.52 33.9 892.9 0.63 876.75"/>
    <polygon class="a" points="0.63 921.5 0.63 921.5 0.63 899.13 33.9 915.28 33.9 937.66 0.63 921.5"/>
    <polygon class="b" points="0.63 966.26 0.63 966.26 0.63 943.88 33.9 960.04 33.9 982.42 0.63 966.26"/>
    <polygon class="a" points="0.63 1011.02 0.63 1011.02 0.63 988.64 33.9 1004.8 33.9 1027.17 0.63 1011.02"/>
    <polygon class="b" points="0.63 1055.78 0.63 1055.78 0.63 1033.4 33.9 1049.56 33.9 1071.93 0.63 1055.78"/>
    <polygon class="a" points="0.63 1100.54 0.63 1100.54 0.63 1078.16 33.9 1094.32 33.9 1116.69 0.63 1100.54"/>
    <polygon class="b" points="0.63 1145.3 0.63 1145.3 0.63 1122.92 33.9 1139.08 33.9 1161.45 0.63 1145.3"/>
    <polygon class="a" points="0.63 1190.06 0.63 1190.06 0.63 1167.68 33.9 1183.84 33.9 1206.21 0.63 1190.06"/>
    <polygon class="b" points="0.63 1234.82 0.63 1234.82 0.63 1212.44 33.9 1228.59 33.9 1250.97 0.63 1234.82"/>
    <polygon class="a" points="0.63 1279.58 0.63 1279.58 0.63 1257.2 33.9 1273.35 33.9 1295.73 0.63 1279.58"/>
    <polygon class="b" points="0.63 1324.34 0.63 1324.34 0.63 1301.96 33.9 1318.11 33.9 1340.49 0.63 1324.34"/>
    <polygon class="a" points="0.63 1369.1 0.63 1369.1 0.63 1346.72 33.9 1362.87 33.9 1385.25 0.63 1369.1"/>
    <polygon class="b" points="0.63 1413.86 0.63 1413.86 0.63 1391.48 33.9 1407.63 33.9 1430.01 0.63 1413.86"/>
    <polygon class="b" points="987.34 697.71 987.34 697.71 987.34 675.33 1020.61 691.48 1020.61 713.86 987.34 697.71"/>
    <polygon class="a" points="987.34 742.47 987.34 742.47 987.34 720.09 1020.61 736.24 1020.61 758.62 987.34 742.47"/>
    <polygon class="b" points="987.34 787.23 987.34 787.23 987.34 764.85 1020.61 781 1020.61 803.38 987.34 787.23"/>
    <polygon class="a" points="987.34 831.99 987.34 831.99 987.34 809.61 1020.61 825.76 1020.61 848.14 987.34 831.99"/>
    <polygon class="b" points="0.63 518.67 0.63 518.67 0.63 496.29 33.9 512.44 33.9 534.82 0.63 518.67"/>
    <polygon class="a" points="0.63 563.43 0.63 563.43 0.63 541.05 33.9 557.2 33.9 579.58 0.63 563.43"/>
    <polygon class="b" points="0.63 608.19 0.63 608.19 0.63 585.81 33.9 601.96 33.9 624.34 0.63 608.19"/>
    <polygon class="a" points="0.63 652.95 0.63 652.95 0.63 630.57 33.9 646.72 33.9 669.1 0.63 652.95"/>
    <polygon class="b" points="987.34 518.67 987.34 518.67 987.34 496.29 1020.61 512.44 1020.61 534.82 987.34 518.67"/>
    <polygon class="a" points="987.34 563.43 987.34 563.43 987.34 541.05 1020.61 557.2 1020.61 579.58 987.34 563.43"/>
    <polygon class="b" points="987.34 608.19 987.34 608.19 987.34 585.81 1020.61 601.96 1020.61 624.34 987.34 608.19"/>
    <polygon class="a" points="987.34 652.95 987.34 652.95 987.34 630.57 1020.61 646.72 1020.61 669.1 987.34 652.95"/>
    <polygon class="b" points="0.63 70 0.63 70 0.63 47.62 33.9 63.77 33.9 86.15 0.63 70"/>
    <polygon class="a" points="0.63 114.76 0.63 114.76 0.63 92.38 33.9 108.53 33.9 130.91 0.63 114.76"/>
    <polygon class="b" points="0.63 247.15 0.63 247.15 0.63 224.77 33.9 240.93 33.9 263.3 0.63 247.15"/>
    <polygon class="a" points="0.63 291.91 0.63 291.91 0.63 269.53 33.9 285.68 33.9 308.06 0.63 291.91"/>
    <polygon class="b" points="0.63 336.67 0.63 336.67 0.63 314.29 33.9 330.44 33.9 352.82 0.63 336.67"/>
    <polygon class="a" points="0.63 381.43 0.63 381.43 0.63 359.05 33.9 375.2 33.9 397.58 0.63 381.43"/>
    <polygon class="b" points="0.63 426.19 0.63 426.19 0.63 403.81 33.9 419.96 33.9 442.34 0.63 426.19"/>
    <polygon class="a" points="0.63 470.95 0.63 470.95 0.63 448.57 33.9 464.72 33.9 487.1 0.63 470.95"/>
    <polygon class="b" points="987.34 70 987.34 70 987.34 47.62 1020.61 63.77 1020.61 86.15 987.34 70"/>
    <polygon class="a" points="987.34 114.76 987.34 114.76 987.34 92.38 1020.61 108.53 1020.61 130.91 987.34 114.76"/>
    <polygon class="b" points="0.63 157.63 0.63 157.63 0.63 135.25 33.9 151.41 33.9 173.78 0.63 157.63"/>
    <polygon class="a" points="0.63 202.39 0.63 202.39 0.63 180.01 33.9 196.16 33.9 218.54 0.63 202.39"/>
    <polygon class="b" points="987.34 157.63 987.34 157.63 987.34 135.25 1020.61 151.41 1020.61 173.78 987.34 157.63"/>
    <polygon class="a" points="987.34 202.39 987.34 202.39 987.34 180.01 1020.61 196.16 1020.61 218.54 987.34 202.39"/>
    <polygon class="b" points="987.34 247.15 987.34 247.15 987.34 224.77 1020.61 240.93 1020.61 263.3 987.34 247.15"/>
    <polygon class="a" points="987.34 291.91 987.34 291.91 987.34 269.53 1020.61 285.68 1020.61 308.06 987.34 291.91"/>
    <polygon class="b" points="987.34 336.67 987.34 336.67 987.34 314.29 1020.61 330.44 1020.61 352.82 987.34 336.67"/>
    <polygon class="a" points="987.34 381.43 987.34 381.43 987.34 359.05 1020.61 375.2 1020.61 397.58 987.34 381.43"/>
    <polygon class="b" points="987.34 426.19 987.34 426.19 987.34 403.81 1020.61 419.96 1020.61 442.34 987.34 426.19"/>
    <polygon class="a" points="987.34 470.95 987.34 470.95 987.34 448.57 1020.61 464.72 1020.61 487.1 987.34 470.95"/>
    <polygon class="b" points="987.34 876.75 987.34 876.75 987.34 854.37 1020.61 870.52 1020.61 892.9 987.34 876.75"/>
    <polygon class="a" points="987.34 921.5 987.34 921.5 987.34 899.13 1020.61 915.28 1020.61 937.66 987.34 921.5"/>
    <polygon class="b" points="987.34 966.26 987.34 966.26 987.34 943.88 1020.61 960.04 1020.61 982.42 987.34 966.26"/>
    <polygon class="a" points="987.34 1011.02 987.34 1011.02 987.34 988.64 1020.61 1004.8 1020.61 1027.17 987.34 1011.02"/>
    <polygon class="b" points="987.34 1055.78 987.34 1055.78 987.34 1033.4 1020.61 1049.56 1020.61 1071.93 987.34 1055.78"/>
    <polygon class="a" points="987.34 1100.54 987.34 1100.54 987.34 1078.16 1020.61 1094.32 1020.61 1116.69 987.34 1100.54"/>
    <polygon class="b" points="987.34 1145.3 987.34 1145.3 987.34 1122.92 1020.61 1139.08 1020.61 1161.45 987.34 1145.3"/>
    <polygon class="a" points="987.34 1190.06 987.34 1190.06 987.34 1167.68 1020.61 1183.84 1020.61 1206.21 987.34 1190.06"/>
    <polygon class="b" points="987.34 1234.82 987.34 1234.82 987.34 1212.44 1020.61 1228.59 1020.61 1250.97 987.34 1234.82"/>
    <polygon class="a" points="987.34 1279.58 987.34 1279.58 987.34 1257.2 1020.61 1273.35 1020.61 1295.73 987.34 1279.58"/>
    <polygon class="b" points="987.34 1324.34 987.34 1324.34 987.34 1301.96 1020.61 1318.11 1020.61 1340.49 987.34 1324.34"/>
    <polygon class="a" points="987.34 1369.1 987.34 1369.1 987.34 1346.72 1020.61 1362.87 1020.61 1385.25 987.34 1369.1"/>
    <polygon class="b" points="987.34 1413.86 987.34 1413.86 987.34 1391.48 1020.61 1407.63 1020.61 1430.01 987.34 1413.86"/>
  </g>
</svg>
