<?xml version="1.0" encoding="iso-8859-1"?>
<!DOCTYPE svg PUBLIC "-//W3C//DTD SVG 1.1//EN" "http://www.w3.org/Graphics/SVG/1.1/DTD/svg11.dtd">
<svg xmlns="http://www.w3.org/2000/svg" width="1023.24" height="1383.92" viewBox="0 0 1023.24 1383.92">
  <defs>
    <style>
      .a {
        fill: #050007;
      }

      .a, .b {
        fill-rule: evenodd;
      }

      .b {
        fill: #ffd200;
      }
    </style>
  </defs>
  <title>convert_longer</title>
  <g>
    <polygon class="a" points="22.38 1383.92 22.38 1383.92 0 1383.92 16.15 1347.56 38.53 1347.56 22.38 1383.92"/>
    <polygon class="b" points="67.14 1383.92 67.14 1383.92 44.76 1383.92 60.91 1347.56 83.29 1347.56 67.14 1383.92"/>
    <polygon class="a" points="111.9 1383.92 111.9 1383.92 89.52 1383.92 105.67 1347.56 128.05 1347.56 111.9 1383.92"/>
    <polygon class="b" points="156.66 1383.92 156.66 1383.92 134.28 1383.92 150.43 1347.56 172.81 1347.56 156.66 1383.92"/>
    <polygon class="a" points="201.42 1383.92 201.42 1383.92 179.04 1383.92 195.19 1347.56 217.57 1347.56 201.42 1383.92"/>
    <polygon class="b" points="246.18 1383.92 246.18 1383.92 223.8 1383.92 239.95 1347.56 262.33 1347.56 246.18 1383.92"/>
    <polygon class="a" points="290.94 1383.92 290.94 1383.92 268.56 1383.92 284.71 1347.56 307.09 1347.56 290.94 1383.92"/>
    <polygon class="b" points="335.7 1383.92 335.7 1383.92 313.32 1383.92 329.47 1347.56 351.85 1347.56 335.7 1383.92"/>
    <polygon class="a" points="380.46 1383.92 380.46 1383.92 358.08 1383.92 374.23 1347.56 396.61 1347.56 380.46 1383.92"/>
    <polygon class="b" points="425.22 1383.92 425.22 1383.92 402.84 1383.92 418.99 1347.56 441.37 1347.56 425.22 1383.92"/>
    <polygon class="a" points="469.98 1383.92 469.98 1383.92 447.6 1383.92 463.75 1347.56 486.13 1347.56 469.98 1383.92"/>
    <polygon class="b" points="514.74 1383.92 514.74 1383.92 492.36 1383.92 508.51 1347.56 530.89 1347.56 514.74 1383.92"/>
    <polygon class="a" points="559.5 1383.92 559.5 1383.92 537.12 1383.92 553.27 1347.56 575.65 1347.56 559.5 1383.92"/>
    <polygon class="b" points="604.25 1383.92 604.25 1383.92 581.88 1383.92 598.03 1347.56 620.41 1347.56 604.25 1383.92"/>
    <polygon class="a" points="649.01 1383.92 649.01 1383.92 626.63 1383.92 642.79 1347.56 665.17 1347.56 649.01 1383.92"/>
    <polygon class="b" points="693.77 1383.92 693.77 1383.92 671.39 1383.92 687.55 1347.56 709.92 1347.56 693.77 1383.92"/>
    <polygon class="a" points="738.53 1383.92 738.53 1383.92 716.15 1383.92 732.3 1347.56 754.68 1347.56 738.53 1383.92"/>
    <polygon class="b" points="783.29 1383.92 783.29 1383.92 760.91 1383.92 777.07 1347.56 799.45 1347.56 783.29 1383.92"/>
    <polygon class="a" points="828.05 1383.92 828.05 1383.92 805.67 1383.92 821.82 1347.56 844.2 1347.56 828.05 1383.92"/>
    <polygon class="b" points="872.81 1383.92 872.81 1383.92 850.43 1383.92 866.58 1347.56 888.96 1347.56 872.81 1383.92"/>
    <polygon class="a" points="917.57 1383.92 917.57 1383.92 895.19 1383.92 911.34 1347.56 933.72 1347.56 917.57 1383.92"/>
    <polygon class="b" points="962.33 1383.92 962.33 1383.92 939.95 1383.92 956.1 1347.56 978.48 1347.56 962.33 1383.92"/>
    <polygon class="a" points="1007.09 1383.92 984.71 1383.92 1000.86 1347.56 1023.24 1347.56 1007.09 1383.92"/>
    <polygon class="a" points="22.38 33.27 22.38 33.27 0 33.27 16.15 0 38.53 0 22.38 33.27"/>
    <polygon class="b" points="67.14 33.27 67.14 33.27 44.76 33.27 60.91 0 83.29 0 67.14 33.27"/>
    <polygon class="a" points="111.9 33.27 111.9 33.27 89.52 33.27 105.67 0 128.05 0 111.9 33.27"/>
    <polygon class="b" points="156.66 33.27 156.66 33.27 134.28 33.27 150.43 0 172.81 0 156.66 33.27"/>
    <polygon class="a" points="201.42 33.27 201.42 33.27 179.04 33.27 195.19 0 217.57 0 201.42 33.27"/>
    <polygon class="b" points="246.18 33.27 246.18 33.27 223.8 33.27 239.95 0 262.33 0 246.18 33.27"/>
    <polygon class="a" points="290.94 33.27 290.94 33.27 268.56 33.27 284.71 0 307.09 0 290.94 33.27"/>
    <polygon class="b" points="335.7 33.27 335.7 33.27 313.32 33.27 329.47 0 351.85 0 335.7 33.27"/>
    <polygon class="a" points="380.46 33.27 380.46 33.27 358.08 33.27 374.23 0 396.61 0 380.46 33.27"/>
    <polygon class="b" points="425.22 33.27 425.22 33.27 402.84 33.27 418.99 0 441.37 0 425.22 33.27"/>
    <polygon class="a" points="469.98 33.27 469.98 33.27 447.6 33.27 463.75 0 486.13 0 469.98 33.27"/>
    <polygon class="b" points="514.74 33.27 514.74 33.27 492.36 33.27 508.51 0 530.89 0 514.74 33.27"/>
    <polygon class="a" points="559.5 33.27 559.5 33.27 537.12 33.27 553.27 0 575.65 0 559.5 33.27"/>
    <polygon class="b" points="604.25 33.27 604.25 33.27 581.88 33.27 598.03 0 620.41 0 604.25 33.27"/>
    <polygon class="a" points="649.01 33.27 649.01 33.27 626.63 33.27 642.79 0 665.17 0 649.01 33.27"/>
    <polygon class="b" points="693.77 33.27 693.77 33.27 671.39 33.27 687.55 0 709.92 0 693.77 33.27"/>
    <polygon class="a" points="738.53 33.27 738.53 33.27 716.15 33.27 732.3 0 754.68 0 738.53 33.27"/>
    <polygon class="b" points="783.29 33.27 783.29 33.27 760.91 33.27 777.07 0 799.45 0 783.29 33.27"/>
    <polygon class="a" points="828.05 33.27 828.05 33.27 805.67 33.27 821.82 0 844.2 0 828.05 33.27"/>
    <polygon class="b" points="872.81 33.27 872.81 33.27 850.43 33.27 866.58 0 888.96 0 872.81 33.27"/>
    <polygon class="a" points="917.57 33.27 917.57 33.27 895.19 33.27 911.34 0 933.72 0 917.57 33.27"/>
    <polygon class="b" points="962.33 33.27 962.33 33.27 939.95 33.27 956.1 0 978.48 0 962.33 33.27"/>
    <polygon class="a" points="1007.09 33.27 984.71 33.27 1000.86 0 1023.24 0 1007.09 33.27"/>
    <polygon class="b" points="0.63 427.03 0.63 427.03 0.63 404.65 33.9 420.8 33.9 443.18 0.63 427.03"/>
    <polygon class="a" points="0.63 471.79 0.63 471.79 0.63 449.41 33.9 465.56 33.9 487.94 0.63 471.79"/>
    <polygon class="b" points="0.63 516.55 0.63 516.55 0.63 494.17 33.9 510.32 33.9 532.7 0.63 516.55"/>
    <polygon class="a" points="0.63 561.31 0.63 561.31 0.63 538.93 33.9 555.08 33.9 577.46 0.63 561.31"/>
    <polygon class="b" points="0.63 606.07 0.63 606.07 0.63 583.69 33.9 599.84 33.9 622.22 0.63 606.07"/>
    <polygon class="a" points="0.63 650.83 0.63 650.83 0.63 628.45 33.9 644.6 33.9 666.98 0.63 650.83"/>
    <polygon class="b" points="0.63 695.59 0.63 695.59 0.63 673.21 33.9 689.36 33.9 711.74 0.63 695.59"/>
    <polygon class="a" points="0.63 740.35 0.63 740.35 0.63 717.97 33.9 734.12 33.9 756.5 0.63 740.35"/>
    <polygon class="b" points="0.63 785.11 0.63 785.11 0.63 762.73 33.9 778.88 33.9 801.26 0.63 785.11"/>
    <polygon class="a" points="0.63 829.87 0.63 829.87 0.63 807.49 33.9 823.64 33.9 846.02 0.63 829.87"/>
    <polygon class="b" points="0.63 874.63 0.63 874.63 0.63 852.25 33.9 868.4 33.9 890.78 0.63 874.63"/>
    <polygon class="a" points="0.63 919.38 0.63 919.38 0.63 897 33.9 913.16 33.9 935.53 0.63 919.38"/>
    <polygon class="b" points="0.63 964.14 0.63 964.14 0.63 941.76 33.9 957.92 33.9 980.29 0.63 964.14"/>
    <polygon class="a" points="0.63 1008.9 0.63 1008.9 0.63 986.52 33.9 1002.67 33.9 1025.06 0.63 1008.9"/>
    <polygon class="b" points="0.63 1053.66 0.63 1053.66 0.63 1031.28 33.9 1047.43 33.9 1069.81 0.63 1053.66"/>
    <polygon class="a" points="0.63 1098.42 0.63 1098.42 0.63 1076.04 33.9 1092.19 33.9 1114.57 0.63 1098.42"/>
    <polygon class="b" points="0.63 1143.18 0.63 1143.18 0.63 1120.8 33.9 1136.95 33.9 1159.33 0.63 1143.18"/>
    <polygon class="a" points="0.63 1187.94 0.63 1187.94 0.63 1165.56 33.9 1181.71 33.9 1204.09 0.63 1187.94"/>
    <polygon class="b" points="0.63 1232.7 0.63 1232.7 0.63 1210.32 33.9 1226.47 33.9 1248.85 0.63 1232.7"/>
    <polygon class="a" points="0.63 1277.46 0.63 1277.46 0.63 1255.08 33.9 1271.23 33.9 1293.61 0.63 1277.46"/>
    <polygon class="b" points="0.63 1322.22 0.63 1322.22 0.63 1299.84 33.9 1315.99 33.9 1338.37 0.63 1322.22"/>
    <polygon class="b" points="987.34 427.03 987.34 427.03 987.34 404.65 1020.61 420.8 1020.61 443.18 987.34 427.03"/>
    <polygon class="a" points="987.34 471.79 987.34 471.79 987.34 449.41 1020.61 465.56 1020.61 487.94 987.34 471.79"/>
    <polygon class="b" points="987.34 516.55 987.34 516.55 987.34 494.17 1020.61 510.32 1020.61 532.7 987.34 516.55"/>
    <polygon class="a" points="987.34 561.31 987.34 561.31 987.34 538.93 1020.61 555.08 1020.61 577.46 987.34 561.31"/>
    <polygon class="b" points="987.34 606.07 987.34 606.07 987.34 583.69 1020.61 599.84 1020.61 622.22 987.34 606.07"/>
    <polygon class="a" points="987.34 650.83 987.34 650.83 987.34 628.45 1020.61 644.6 1020.61 666.98 987.34 650.83"/>
    <polygon class="b" points="987.34 695.59 987.34 695.59 987.34 673.21 1020.61 689.36 1020.61 711.74 987.34 695.59"/>
    <polygon class="a" points="987.34 740.35 987.34 740.35 987.34 717.97 1020.61 734.12 1020.61 756.5 987.34 740.35"/>
    <polygon class="b" points="0.63 65.99 0.63 65.99 0.63 43.61 33.9 59.77 33.9 82.14 0.63 65.99"/>
    <polygon class="a" points="0.63 110.75 0.63 110.75 0.63 88.37 33.9 104.53 33.9 126.9 0.63 110.75"/>
    <polygon class="b" points="0.63 155.51 0.63 155.51 0.63 133.13 33.9 149.28 33.9 171.66 0.63 155.51"/>
    <polygon class="a" points="0.63 200.27 0.63 200.27 0.63 177.89 33.9 194.04 33.9 216.42 0.63 200.27"/>
    <polygon class="b" points="0.63 245.03 0.63 245.03 0.63 222.65 33.9 238.8 33.9 261.18 0.63 245.03"/>
    <polygon class="a" points="0.63 289.79 0.63 289.79 0.63 267.41 33.9 283.56 33.9 305.94 0.63 289.79"/>
    <polygon class="b" points="0.63 334.55 0.63 334.55 0.63 312.17 33.9 328.32 33.9 350.7 0.63 334.55"/>
    <polygon class="a" points="0.63 379.31 0.63 379.31 0.63 356.93 33.9 373.08 33.9 395.46 0.63 379.31"/>
    <polygon class="b" points="987.34 65.99 987.34 65.99 987.34 43.61 1020.61 59.77 1020.61 82.14 987.34 65.99"/>
    <polygon class="a" points="987.34 110.75 987.34 110.75 987.34 88.37 1020.61 104.53 1020.61 126.9 987.34 110.75"/>
    <polygon class="b" points="987.34 155.51 987.34 155.51 987.34 133.13 1020.61 149.28 1020.61 171.66 987.34 155.51"/>
    <polygon class="a" points="987.34 200.27 987.34 200.27 987.34 177.89 1020.61 194.04 1020.61 216.42 987.34 200.27"/>
    <polygon class="b" points="987.34 245.03 987.34 245.03 987.34 222.65 1020.61 238.8 1020.61 261.18 987.34 245.03"/>
    <polygon class="a" points="987.34 289.79 987.34 289.79 987.34 267.41 1020.61 283.56 1020.61 305.94 987.34 289.79"/>
    <polygon class="b" points="987.34 334.55 987.34 334.55 987.34 312.17 1020.61 328.32 1020.61 350.7 987.34 334.55"/>
    <polygon class="a" points="987.34 379.31 987.34 379.31 987.34 356.93 1020.61 373.08 1020.61 395.46 987.34 379.31"/>
    <polygon class="b" points="987.34 785.11 987.34 785.11 987.34 762.73 1020.61 778.88 1020.61 801.26 987.34 785.11"/>
    <polygon class="a" points="987.34 829.87 987.34 829.87 987.34 807.49 1020.61 823.64 1020.61 846.02 987.34 829.87"/>
    <polygon class="b" points="987.34 874.63 987.34 874.63 987.34 852.25 1020.61 868.4 1020.61 890.78 987.34 874.63"/>
    <polygon class="a" points="987.34 919.38 987.34 919.38 987.34 897 1020.61 913.16 1020.61 935.53 987.34 919.38"/>
    <polygon class="b" points="987.34 964.14 987.34 964.14 987.34 941.76 1020.61 957.92 1020.61 980.29 987.34 964.14"/>
    <polygon class="a" points="987.34 1008.9 987.34 1008.9 987.34 986.52 1020.61 1002.67 1020.61 1025.06 987.34 1008.9"/>
    <polygon class="b" points="987.34 1053.66 987.34 1053.66 987.34 1031.28 1020.61 1047.43 1020.61 1069.81 987.34 1053.66"/>
    <polygon class="a" points="987.34 1098.42 987.34 1098.42 987.34 1076.04 1020.61 1092.19 1020.61 1114.57 987.34 1098.42"/>
    <polygon class="b" points="987.34 1143.18 987.34 1143.18 987.34 1120.8 1020.61 1136.95 1020.61 1159.33 987.34 1143.18"/>
    <polygon class="a" points="987.34 1187.94 987.34 1187.94 987.34 1165.56 1020.61 1181.71 1020.61 1204.09 987.34 1187.94"/>
    <polygon class="b" points="987.34 1232.7 987.34 1232.7 987.34 1210.32 1020.61 1226.47 1020.61 1248.85 987.34 1232.7"/>
    <polygon class="a" points="987.34 1277.46 987.34 1277.46 987.34 1255.08 1020.61 1271.23 1020.61 1293.61 987.34 1277.46"/>
    <polygon class="b" points="987.34 1322.22 987.34 1322.22 987.34 1299.84 1020.61 1315.99 1020.61 1338.37 987.34 1322.22"/>
  </g>
</svg>
