<?xml version="1.0" encoding="iso-8859-1"?>
<!DOCTYPE svg PUBLIC "-//W3C//DTD SVG 1.1//EN" "http://www.w3.org/Graphics/SVG/1.1/DTD/svg11.dtd">
<svg xmlns="http://www.w3.org/2000/svg" width="1133.53" height="565.53" viewBox="0 0 1133.53 565.53">
  <defs>
    <style>
      .a {
        fill: #050007;
      }

      .a, .b {
        fill-rule: evenodd;
      }

      .b {
        fill: #ffd200;
      }

      .c {
        fill: none;
        stroke: #1d1d1b;
        stroke-miterlimit: 22.93;
        stroke-width: 2.83px;
      }
    </style>
  </defs>
  <title>convert</title>
  <g>
    <g>
      <polygon class="a" points="24.79 565.53 24.79 565.53 0 565.53 17.89 529.17 42.68 529.17 24.79 565.53"/>
      <polygon class="b" points="74.38 565.53 74.38 565.53 49.58 565.53 67.48 529.17 92.27 529.17 74.38 565.53"/>
      <polygon class="a" points="123.96 565.53 123.96 565.53 99.17 565.53 117.06 529.17 141.85 529.17 123.96 565.53"/>
      <polygon class="b" points="173.54 565.53 173.54 565.53 148.75 565.53 166.64 529.17 191.44 529.17 173.54 565.53"/>
      <polygon class="a" points="223.13 565.53 223.13 565.53 198.34 565.53 216.23 529.17 241.02 529.17 223.13 565.53"/>
      <polygon class="b" points="272.71 565.53 272.71 565.53 247.92 565.53 265.81 529.17 290.6 529.17 272.71 565.53"/>
      <polygon class="a" points="322.3 565.53 322.3 565.53 297.5 565.53 315.4 529.17 340.19 529.17 322.3 565.53"/>
      <polygon class="b" points="371.88 565.53 371.88 565.53 347.09 565.53 364.98 529.17 389.77 529.17 371.88 565.53"/>
      <polygon class="a" points="421.46 565.53 421.46 565.53 396.67 565.53 414.56 529.17 439.36 529.17 421.46 565.53"/>
      <polygon class="b" points="471.05 565.53 471.05 565.53 446.25 565.53 464.15 529.17 488.94 529.17 471.05 565.53"/>
      <polygon class="a" points="520.63 565.53 520.63 565.53 495.84 565.53 513.73 529.17 538.52 529.17 520.63 565.53"/>
      <polygon class="b" points="570.22 565.53 570.22 565.53 545.42 565.53 563.32 529.17 588.11 529.17 570.22 565.53"/>
      <polygon class="a" points="619.8 565.53 619.8 565.53 595.01 565.53 612.9 529.17 637.69 529.17 619.8 565.53"/>
      <polygon class="b" points="669.38 565.53 669.38 565.53 644.59 565.53 662.48 529.17 687.27 529.17 669.38 565.53"/>
      <polygon class="a" points="718.97 565.53 718.97 565.53 694.17 565.53 712.07 529.17 736.86 529.17 718.97 565.53"/>
      <polygon class="b" points="768.55 565.53 768.55 565.53 743.76 565.53 761.65 529.17 786.44 529.17 768.55 565.53"/>
      <polygon class="a" points="818.13 565.53 818.13 565.53 793.34 565.53 811.24 529.17 836.03 529.17 818.13 565.53"/>
      <polygon class="b" points="867.72 565.53 867.72 565.53 842.93 565.53 860.82 529.17 885.61 529.17 867.72 565.53"/>
      <polygon class="a" points="917.3 565.53 917.3 565.53 892.51 565.53 910.4 529.17 935.2 529.17 917.3 565.53"/>
      <polygon class="b" points="966.89 565.53 966.89 565.53 942.1 565.53 959.99 529.17 984.78 529.17 966.89 565.53"/>
      <polygon class="a" points="1016.47 565.53 1016.47 565.53 991.68 565.53 1009.57 529.17 1034.36 529.17 1016.47 565.53"/>
      <polygon class="b" points="1066.06 565.53 1066.06 565.53 1041.26 565.53 1059.15 529.17 1083.95 529.17 1066.06 565.53"/>
      <polygon class="a" points="1115.64 565.53 1090.85 565.53 1108.74 529.17 1133.53 529.17 1115.64 565.53"/>
      <polygon class="b" points="30.99 474.46 30.99 474.46 30.99 507.41 0 483.63 0 450.69 30.99 474.46"/>
      <polygon class="a" points="30.99 408.58 30.99 408.58 30.99 441.52 0 417.75 0 384.8 30.99 408.58"/>
      <polygon class="b" points="30.99 342.69 30.99 342.69 30.99 375.64 0 351.86 0 318.92 30.99 342.69"/>
      <polygon class="a" points="30.99 276.81 30.99 276.81 30.99 309.75 0 285.97 0 253.03 30.99 276.81"/>
      <polygon class="b" points="30.99 210.92 30.99 210.92 30.99 243.86 0 220.09 0 187.15 30.99 210.92"/>
      <polygon class="a" points="30.99 145.03 30.99 145.03 30.99 177.98 0 154.2 0 121.26 30.99 145.03"/>
      <polygon class="b" points="30.99 79.15 30.99 112.09 0 88.31 0 55.37 30.99 79.15"/>
      <polygon class="b" points="1132.8 474.46 1132.8 474.46 1132.8 507.41 1101.81 483.63 1101.81 450.69 1132.8 474.46"/>
      <polygon class="a" points="1132.8 408.58 1132.8 408.58 1132.8 441.52 1101.81 417.75 1101.81 384.8 1132.8 408.58"/>
      <polygon class="b" points="1132.8 342.69 1132.8 342.69 1132.8 375.64 1101.81 351.86 1101.81 318.92 1132.8 342.69"/>
      <polygon class="a" points="1132.8 276.81 1132.8 276.81 1132.8 309.75 1101.81 285.97 1101.81 253.03 1132.8 276.81"/>
      <polygon class="b" points="1132.8 210.92 1132.8 210.92 1132.8 243.86 1101.81 220.09 1101.81 187.15 1132.8 210.92"/>
      <polygon class="a" points="1132.8 145.03 1132.8 145.03 1132.8 177.98 1101.81 154.2 1101.81 121.26 1132.8 145.03"/>
      <polygon class="b" points="1132.8 79.15 1132.8 112.09 1101.81 88.31 1101.81 55.37 1132.8 79.15"/>
      <polygon class="a" points="24.79 33.27 24.79 33.27 0 33.27 17.89 0 42.68 0 24.79 33.27"/>
      <polygon class="b" points="74.38 33.27 74.38 33.27 49.58 33.27 67.48 0 92.27 0 74.38 33.27"/>
      <polygon class="a" points="123.96 33.27 123.96 33.27 99.17 33.27 117.06 0 141.85 0 123.96 33.27"/>
      <polygon class="b" points="173.54 33.27 173.54 33.27 148.75 33.27 166.64 0 191.44 0 173.54 33.27"/>
      <polygon class="a" points="223.13 33.27 223.13 33.27 198.34 33.27 216.23 0 241.02 0 223.13 33.27"/>
      <polygon class="b" points="272.71 33.27 272.71 33.27 247.92 33.27 265.81 0 290.6 0 272.71 33.27"/>
      <polygon class="a" points="322.3 33.27 322.3 33.27 297.5 33.27 315.4 0 340.19 0 322.3 33.27"/>
      <polygon class="b" points="371.88 33.27 371.88 33.27 347.09 33.27 364.98 0 389.77 0 371.88 33.27"/>
      <polygon class="a" points="421.46 33.27 421.46 33.27 396.67 33.27 414.56 0 439.36 0 421.46 33.27"/>
      <polygon class="b" points="471.05 33.27 471.05 33.27 446.25 33.27 464.15 0 488.94 0 471.05 33.27"/>
      <polygon class="a" points="520.63 33.27 520.63 33.27 495.84 33.27 513.73 0 538.52 0 520.63 33.27"/>
      <polygon class="b" points="570.22 33.27 570.22 33.27 545.42 33.27 563.32 0 588.11 0 570.22 33.27"/>
      <polygon class="a" points="619.8 33.27 619.8 33.27 595.01 33.27 612.9 0 637.69 0 619.8 33.27"/>
      <polygon class="b" points="669.38 33.27 669.38 33.27 644.59 33.27 662.48 0 687.27 0 669.38 33.27"/>
      <polygon class="a" points="718.97 33.27 718.97 33.27 694.17 33.27 712.07 0 736.86 0 718.97 33.27"/>
      <polygon class="b" points="768.55 33.27 768.55 33.27 743.76 33.27 761.65 0 786.44 0 768.55 33.27"/>
      <polygon class="a" points="818.13 33.27 818.13 33.27 793.34 33.27 811.24 0 836.03 0 818.13 33.27"/>
      <polygon class="b" points="867.72 33.27 867.72 33.27 842.93 33.27 860.82 0 885.61 0 867.72 33.27"/>
      <polygon class="a" points="917.3 33.27 917.3 33.27 892.51 33.27 910.4 0 935.2 0 917.3 33.27"/>
      <polygon class="b" points="966.89 33.27 966.89 33.27 942.1 33.27 959.99 0 984.78 0 966.89 33.27"/>
      <polygon class="a" points="1016.47 33.27 1016.47 33.27 991.68 33.27 1009.57 0 1034.36 0 1016.47 33.27"/>
      <polygon class="b" points="1066.06 33.27 1066.06 33.27 1041.26 33.27 1059.15 0 1083.95 0 1066.06 33.27"/>
      <polygon class="a" points="1115.64 33.27 1090.85 33.27 1108.74 0 1133.53 0 1115.64 33.27"/>
    </g>
<!--    <rect class="c" x="30.99" y="33.27" width="1070.82" height="495.9"/>-->
  </g>
</svg>
