<?xml version="1.0" encoding="UTF-8"?>
<!DOCTYPE svg PUBLIC "-//W3C//DTD SVG 1.1//EN" "http://www.w3.org/Graphics/SVG/1.1/DTD/svg11.dtd">
<svg xmlns="http://www.w3.org/2000/svg" width="404" height="313.27" viewBox="0 0 404 313.27">
  <defs>
    <style>
      .a {
        fill: #fff;
        fill-opacity: 0.5;
      }

      .a, .b {
        fill-rule: evenodd;
      }

      .b {
        fill: #fbbc37;
      }

      .c {
        fill: #fff;
      }
    </style>
  </defs>
  <title>Models_Developed</title>
  <g>
    <path class="a" d="M199.67,0l29.19,16.85L258.05,33.7v67.41L228.86,118l-29.19,16.86L170.48,118l-29.19-16.85V33.7l29.19-16.85L199.67,0Zm29.16,38.2c-3.18-3.18-5.85-4.88-8-5.12l-3.21-.34L169.48,80.9l-4.43,21.18,21.17-4.52L234.3,49.49s-.12-1.08-.34-3.21-1.94-4.83-5.13-8.08ZM184.92,95,187,93s-.21-.83-.61-2.51-1.72-3.65-3.91-5.9-4.13-3.49-5.82-3.91l-2.52-.6-2.07,2.08-1.57,7.2c.3.18.61.37,1,.56s.7.43,1,.66.7.57,1,.87a9.3,9.3,0,0,1,1,1,12.23,12.23,0,0,1,1.08,1.08c.31.38.59.74.83,1.09a10.48,10.48,0,0,1,.65,1c.19.36.39.67.56,1Z"/>
    <path class="b" d="M0,61.23H141V33.7l29.18-16.85L199.34,0l29.19,16.85L257.72,33.7V61.23H404v252H0v-252Zm141,6.18L7.82,68V306.48H396.27V68H257.72v33.09L228.53,118l-29.19,16.86L170.15,118,141,101.11V67.41ZM199.34,3.15,171.52,19.22,143.69,35.28V99.54l27.83,16.06,27.82,16.07,27.83-16.07L255,99.54V35.28L227.17,19.22Z"/>
    <g>
      <path class="c" d="M89.08,186.84q0,8.47-3.68,12.16-3.29,3.28-9.52,3.28H46v-8.4H68.44q5.76,0,7.28-1,2.48-1.6,2.48-6.64t-2.32-6.72a8.76,8.76,0,0,0-5.28-1.36H47.4v-8.4H70c2.83,0,4.77-.59,5.84-1.76s1.6-3.15,1.6-5.92-.51-4.64-1.52-5.76-2.69-1.68-5-1.68H46.92v-8.4H75q7.44,0,10.64,4.16,2.64,3.36,2.64,10.56,0,6.8-2.64,9.84a8.33,8.33,0,0,1-5.76,2.88V174A8.68,8.68,0,0,1,86,176.44Q89.08,179.49,89.08,186.84Z"/>
      <path class="c" d="M138.52,184.92q0,10.4-3.84,14.16-3.28,3.19-10.64,3.2H95.8v-8.4h25c2.77,0,4.67-.8,5.68-2.4q1.2-1.92,1.2-6.16,0-3.91-1.2-5.6-1.51-2.08-4.88-2.08H106.68q-5.76,0-8-1.6-3.2-2.32-3.2-8.4V153.48a7.3,7.3,0,0,1,1.84-5.28c1.23-1.28,3.09-1.92,5.6-1.92h33.76v8.4h-28c-1.12,0-1.84.21-2.16.64a3.87,3.87,0,0,0-.48,2.24v7c0,1.81.31,3,.92,3.72s1.85,1,3.72,1h15.44q6.16,0,9.52,4.24Q138.52,177.08,138.52,184.92Z"/>
      <path class="c" d="M208.68,182q0,13.33-6.72,17.89a17.71,17.71,0,0,1-8.08,2.56c-1.23.11-3.81.16-7.76.16s-6.59,0-7.76-.16a17.71,17.71,0,0,1-8.08-2.56q-6.72-4.63-6.72-17.89V165.93q0-10.94,5.84-16.06a16.08,16.08,0,0,1,7.76-3.51,48,48,0,0,1,9-.64,48,48,0,0,1,9,.64,16.08,16.08,0,0,1,7.76,3.51q5.83,5.12,5.84,16.06Zm-10.56-1.2V166.41q0-7-3.6-10-2.88-2.31-8.4-2.31t-8.4,2.31q-3.6,3-3.6,10v14.38q0,7.82,2.4,10.62t9.6,2.79q7.11,0,9.56-2.83T198.12,180.79Z"/>
      <path class="c" d="M260.2,182q0,13.33-6.72,17.89a17.75,17.75,0,0,1-8.08,2.56q-1.85.17-7.76.16t-7.76-.16a17.67,17.67,0,0,1-8.08-2.56q-6.72-4.63-6.72-17.89V165.93q0-10.94,5.84-16.06a16.08,16.08,0,0,1,7.76-3.51,63,63,0,0,1,17.92,0,16.12,16.12,0,0,1,7.76,3.51q5.83,5.12,5.84,16.06Zm-10.56-1.2V166.41q0-7-3.6-10-2.88-2.31-8.4-2.31t-8.4,2.31q-3.6,3-3.6,10v14.38q0,7.82,2.4,10.62t9.6,2.79q7.11,0,9.56-2.83T249.64,180.79Z"/>
      <path class="c" d="M311.72,182q0,13.33-6.72,17.89a17.71,17.71,0,0,1-8.08,2.56c-1.23.11-3.81.16-7.76.16s-6.59,0-7.76-.16a17.71,17.71,0,0,1-8.08-2.56q-6.72-4.63-6.72-17.89V165.93q0-10.94,5.84-16.06a16.08,16.08,0,0,1,7.76-3.51,63,63,0,0,1,17.92,0,16.08,16.08,0,0,1,7.76,3.51q5.83,5.12,5.84,16.06Zm-10.56-1.2V166.41q0-7-3.6-10-2.88-2.31-8.4-2.31t-8.4,2.31q-3.6,3-3.6,10v14.38q0,7.82,2.4,10.62t9.6,2.79q7.13,0,9.56-2.83T301.16,180.79Z"/>
      <path class="c" d="M356.44,180.84H341.72v14.72h-7.28V180.84H319.72V174h14.72V159.32h7.28V174h14.72Z"/>
      <path class="c" d="M170.2,250.28h-5.28l.16-21.8q0-.84-.48-.84c-.21,0-.44.31-.68.92l-7.16,18.68a7.24,7.24,0,0,1-1.36,2.48,4.35,4.35,0,0,1-5.4-.12,7.49,7.49,0,0,1-1.24-2.36l-7.16-18.68c-.24-.61-.47-.92-.68-.92s-.44.28-.44.84l.12,21.8h-5.28V225.64q0-3.67,4.52-3.68a4.9,4.9,0,0,1,3.4,1.08,6.16,6.16,0,0,1,1.52,2.52L152,244.24c.27.69.52,1,.76,1s.49-.35.76-1l7.24-18.68a6,6,0,0,1,2.16-3,5.38,5.38,0,0,1,2.76-.6q4.51,0,4.52,3.68Z"/>
      <path class="c" d="M196.2,239.6q0,6.08-2.72,8.64-2.44,2.28-8.56,2.28c-4,0-6.91-.76-8.56-2.28q-2.72-2.48-2.72-8.48,0-6.16,2.72-8.68,2.4-2.24,8.56-2.24t8.56,2.24Q196.2,233.6,196.2,239.6Zm-4.84.12q0-4.08-1.36-5.6c-1-1.12-2.71-1.68-5.08-1.68s-4.16.56-5.12,1.68-1.32,2.88-1.32,5.6.45,4.4,1.36,5.44,2.71,1.76,5.08,1.76,4-.59,5-1.76S191.36,242.31,191.36,239.72Z"/>
      <path class="c" d="M218,246.56a4.47,4.47,0,0,1-.64,2.64,3.42,3.42,0,0,1-2.92,1.08h-8.36c-3.33,0-5.59-1.4-6.76-4.2a17.8,17.8,0,0,1-1-6.72c0-3.17.55-5.55,1.64-7.12q2.21-3.17,7.12-3.16h6.28v-6.8H218Zm-4.68-1.68v-12.2H208a4.24,4.24,0,0,0-3.92,1.88,9.92,9.92,0,0,0-.92,5,13.85,13.85,0,0,0,.56,4.76q1,2.4,4.28,2.4h3.76a1.88,1.88,0,0,0,1.24-.32A2.07,2.07,0,0,0,213.36,244.88Z"/>
      <path class="c" d="M241.08,237.23a4.4,4.4,0,0,1-1,3.21,3.09,3.09,0,0,1-2.28.8H225.48a11.92,11.92,0,0,0,.28,2.92c.43,1.68,1.85,2.52,4.28,2.52H240.4v3.6H228.64q-4.6,0-6.48-2.69-1.51-2.16-1.52-7.73a24.13,24.13,0,0,1,.4-5.17,6.58,6.58,0,0,1,2.12-3.73q2.33-2,7.92-2,4.84,0,7,1.36Q241.08,232.21,241.08,237.23Zm-4.84-.84a3.34,3.34,0,0,0-1.32-2.82,6.65,6.65,0,0,0-4-1q-3.19,0-4.44,1.41a6,6,0,0,0-1,3.67h9.72C235.89,237.64,236.24,237.22,236.24,236.39Z"/>
      <path class="c" d="M248.4,250.28h-4.68v-28h4.68Z"/>
      <path class="c" d="M270,244.88c0,2.11-.59,3.61-1.76,4.52a5.56,5.56,0,0,1-3.4.88H251.32v-3.6h11.92a2,2,0,0,0,1.56-.6,1.88,1.88,0,0,0,.4-1.32,2.08,2.08,0,0,0-.6-1.6,14.35,14.35,0,0,0-3.84-1.36l-4.08-1.12q-3.48-1-4.64-2.56a7,7,0,0,1,0-7.2q1.32-1.84,5.08-1.84h12v3.6H257.84a2.7,2.7,0,0,0-1.68.44,1.75,1.75,0,0,0-.56,1.48,2,2,0,0,0,.66,1.62,7.93,7.93,0,0,0,2.66,1.1l4.56,1.28q4.13,1.16,5.28,2.4A5.47,5.47,0,0,1,270,244.88Z"/>
      <path class="c" d="M128.84,294.56a4.47,4.47,0,0,1-.64,2.64,3.41,3.41,0,0,1-2.92,1.08h-8.36c-3.33,0-5.59-1.4-6.76-4.2a17.8,17.8,0,0,1-1-6.72c0-3.17.55-5.55,1.64-7.12q2.2-3.17,7.12-3.16h6.28v-6.8h4.68Zm-4.68-1.68v-12.2H118.8a4.25,4.25,0,0,0-3.92,1.88,9.92,9.92,0,0,0-.92,5,13.85,13.85,0,0,0,.56,4.76q1,2.4,4.28,2.4h3.76a1.88,1.88,0,0,0,1.24-.32A2.07,2.07,0,0,0,124.16,292.88Z"/>
      <path class="c" d="M151.88,285.23a4.4,4.4,0,0,1-1,3.21,3.09,3.09,0,0,1-2.28.8H136.28a11.92,11.92,0,0,0,.28,2.92c.43,1.68,1.85,2.52,4.28,2.52H151.2v3.6H139.44q-4.6,0-6.48-2.69-1.52-2.16-1.52-7.73a24.13,24.13,0,0,1,.4-5.17A6.58,6.58,0,0,1,134,279q2.32-2,7.92-2,4.85,0,7,1.36Q151.88,280.21,151.88,285.23Zm-4.84-.84a3.34,3.34,0,0,0-1.32-2.82,6.65,6.65,0,0,0-4-1q-3.19,0-4.44,1.41a6,6,0,0,0-1,3.67H146C146.69,285.64,147,285.22,147,284.39Z"/>
      <path class="c" d="M174.64,277.08l-8.08,19.56a3.77,3.77,0,0,1-6.52,0L152,277.08h4.84l6,15.72c.21.56.4.84.56.84s.35-.28.56-.84l5.92-15.72Z"/>
      <path class="c" d="M195.16,285.23a4.4,4.4,0,0,1-1,3.21,3.09,3.09,0,0,1-2.28.8H179.56a11.92,11.92,0,0,0,.28,2.92c.43,1.68,1.85,2.52,4.28,2.52h10.36v3.6H182.72q-4.6,0-6.48-2.69-1.52-2.16-1.52-7.73a24.13,24.13,0,0,1,.4-5.17,6.58,6.58,0,0,1,2.12-3.73q2.32-2,7.92-2,4.84,0,7,1.36Q195.16,280.21,195.16,285.23Zm-4.84-.84a3.34,3.34,0,0,0-1.32-2.82,6.65,6.65,0,0,0-4-1q-3.19,0-4.44,1.41a6,6,0,0,0-1,3.67h9.72C190,285.64,190.32,285.22,190.32,284.39Z"/>
      <path class="c" d="M202.48,298.28H197.8v-28h4.68Z"/>
      <path class="c" d="M227.68,287.6q0,6.07-2.72,8.64-2.44,2.28-8.56,2.28c-4.05,0-6.91-.76-8.56-2.28q-2.72-2.48-2.72-8.48,0-6.17,2.72-8.68,2.4-2.24,8.56-2.24t8.56,2.24Q227.68,281.6,227.68,287.6Zm-4.84.12q0-4.08-1.36-5.6c-1-1.12-2.71-1.68-5.08-1.68s-4.16.56-5.12,1.68S210,285,210,287.72s.45,4.4,1.36,5.44,2.71,1.76,5.08,1.76,4-.59,5-1.76S222.84,290.31,222.84,287.72Z"/>
      <path class="c" d="M250,287.24q0,5.6-1.68,8-2.12,3-7.44,3H235v6.8h-4.68V280.36a3.08,3.08,0,0,1,1.2-2.6,4.31,4.31,0,0,1,2.64-.68h7.4a8.25,8.25,0,0,1,6.24,2.32Q250,281.73,250,287.24Zm-4.84.4a12.79,12.79,0,0,0-.56-4.56,4,4,0,0,0-4.08-2.4H236a1,1,0,0,0-.62.3.89.89,0,0,0-.34.7v13h5.32a4.43,4.43,0,0,0,4-2C244.91,291.81,245.2,290.12,245.2,287.64Z"/>
      <path class="c" d="M272.56,285.23a4.4,4.4,0,0,1-1,3.21,3.09,3.09,0,0,1-2.28.8H257a11.92,11.92,0,0,0,.28,2.92c.43,1.68,1.85,2.52,4.28,2.52h10.36v3.6H260.12q-4.6,0-6.48-2.69-1.51-2.16-1.52-7.73a24.13,24.13,0,0,1,.4-5.17,6.58,6.58,0,0,1,2.12-3.73q2.33-2,7.92-2,4.85,0,7,1.36Q272.56,280.21,272.56,285.23Zm-4.84-.84a3.34,3.34,0,0,0-1.32-2.82,6.65,6.65,0,0,0-4-1q-3.19,0-4.44,1.41a6,6,0,0,0-1,3.67h9.72C267.37,285.64,267.72,285.22,267.72,284.39Z"/>
      <path class="c" d="M294.4,294.56a4.47,4.47,0,0,1-.64,2.64,3.42,3.42,0,0,1-2.92,1.08h-8.36c-3.33,0-5.59-1.4-6.76-4.2a17.8,17.8,0,0,1-1-6.72c0-3.17.55-5.55,1.64-7.12q2.21-3.17,7.12-3.16h6.28v-6.8h4.68Zm-4.68-1.68v-12.2h-5.36a4.24,4.24,0,0,0-3.92,1.88,9.92,9.92,0,0,0-.92,5,13.85,13.85,0,0,0,.56,4.76q1,2.4,4.28,2.4h3.76a1.88,1.88,0,0,0,1.24-.32A2.07,2.07,0,0,0,289.72,292.88Z"/>
    </g>
  </g>
</svg>
