<?xml version="1.0" encoding="UTF-8"?>
<!DOCTYPE svg PUBLIC "-//W3C//DTD SVG 1.1//EN" "http://www.w3.org/Graphics/SVG/1.1/DTD/svg11.dtd">
<svg xmlns="http://www.w3.org/2000/svg" width="404" height="313.27" viewBox="0 0 404 313.27">
  <defs>
    <style>
      .a {
        fill: #fff;
        fill-opacity: 0.5;
      }

      .a, .b {
        fill-rule: evenodd;
      }

      .b {
        fill: #fbbc37;
      }
    </style>
  </defs>
  <title>Years</title>
  <g>
    <path class="a" d="M199.34,0l29.19,16.85L257.72,33.7v67.41L228.53,118l-29.19,16.86L170.15,118,141,101.11V33.7l29.18-16.85L199.34,0ZM228.5,38.2c-3.18-3.18-5.85-4.88-8-5.12l-3.21-.34L169.15,80.9l-4.43,21.18,21.18-4.52L234,49.49s-.12-1.08-.34-3.21-1.94-4.83-5.13-8.08ZM184.59,95,186.68,93s-.21-.83-.61-2.51-1.71-3.65-3.91-5.9-4.13-3.49-5.82-3.91l-2.51-.6-2.08,2.08-1.57,7.2c.3.18.61.37,1,.56s.69.43,1,.66.7.57,1,.87a8.54,8.54,0,0,1,1.05,1,11,11,0,0,1,1.08,1.08c.31.38.59.74.83,1.09a8.77,8.77,0,0,1,.65,1c.2.36.39.67.57,1Z"/>
    <path class="b" d="M0,61.23H141V33.7l29.18-16.85L199.34,0l29.19,16.85L257.72,33.7V61.23H404v252H0v-252Zm141,6.18L7.82,68V306.48H396.27V68H257.72v33.09L228.53,118l-29.19,16.86L170.15,118,141,101.11V67.41ZM199.34,3.15,171.52,19.22,143.69,35.28V99.54l27.83,16.06,27.82,16.07,27.83-16.07L255,99.54V35.28L227.17,19.22Z"/>
  </g>
</svg>
