<?xml version="1.0" encoding="UTF-8"?>
<!DOCTYPE svg PUBLIC "-//W3C//DTD SVG 1.1//EN" "http://www.w3.org/Graphics/SVG/1.1/DTD/svg11.dtd">
<svg xmlns="http://www.w3.org/2000/svg" width="404" height="313.27" viewBox="0 0 404 313.27">
  <defs>
    <style>
      .a {
        fill: #fff;
        fill-opacity: 0.5;
      }

      .a, .b {
        fill-rule: evenodd;
      }

      .b {
        fill: #fbbc37;
      }

      .c {
        fill: #fff;
      }
    </style>
  </defs>
  <title>Printed_Products</title>
  <g>
    <path class="a" d="M199.34,0l29.19,16.85L257.72,33.7v67.41L228.53,118l-29.19,16.86L170.15,118,141,101.11V33.7l29.18-16.85L199.34,0ZM151.57,91.31a5.6,5.6,0,0,0,3.15,5l19.68,9.84a5,5,0,0,0,2.46.61,5.41,5.41,0,0,0,2.54-.61l19.67-9.84a.84.84,0,0,0,.32-.16.66.66,0,0,0,.3.16l19.68,9.84a5,5,0,0,0,2.45.61,5.17,5.17,0,0,0,2.55-.61L244,96.31a5.38,5.38,0,0,0,2.31-2.07,5.72,5.72,0,0,0,.76-2.93V73a5.57,5.57,0,0,0-3.38-5.14l-19.06-8.15V42.12a5.33,5.33,0,0,0-.92-3.07A6.24,6.24,0,0,0,221.22,37l-19.68-8.45a5.06,5.06,0,0,0-2.15-.46,5.14,5.14,0,0,0-2.23.46L177.48,37A5.77,5.77,0,0,0,175,39.05a5.4,5.4,0,0,0-.91,3.07v17.6L155,67.87a6.27,6.27,0,0,0-2.55,2.07,5.59,5.59,0,0,0-.92,3.07v18.3Zm7.53-19.14,17.76,7.61,17.75-7.61-17.75-7.53L159.1,72.17Zm20.61,27.6,16.83-8.46V77.55L179.71,84.7V99.77ZM180,42l19.38,8.3L218.75,42l-19.36-8.31L180,42Zm22.13,25,16.93-7.23V48l-16.93,7.15V67Zm1.93,5.22,17.75,7.61,17.76-7.61-17.76-7.53-17.75,7.53Zm20.6,27.6,16.83-8.46V77.55L224.67,84.7Z"/>
    <path class="b" d="M0,61.23H141V33.7l29.18-16.85L199.34,0l29.19,16.85L257.72,33.7V61.23H404v252H0v-252Zm141,6.18L7.82,68V306.48H396.27V68H257.72v33.09L228.53,118l-29.19,16.86L170.15,118,141,101.11V67.41ZM199.34,3.15,171.52,19.22,143.69,35.28V99.54l27.83,16.06,27.82,16.07,27.83-16.07L255,99.54V35.28L227.17,19.22Z"/>
    <g>
      <path class="c" d="M62.6,161.16q0,7.44-2.56,11.12a19.47,19.47,0,0,1-4.88,4.48L32.6,192.44c-.59.43-.88.75-.88,1s.21.48.64.48H60.2v8.4H24.76q-5.93,0-5.92-6.72,0-5,3.44-7.36L48.2,170.44q3.52-2.4,3.52-8.08,0-4.32-1.12-5.76c-1-1.28-2.91-1.92-5.68-1.92H22.6v-8.4H49.8q6.24,0,9.52,3.36T62.6,161.16Z"/>
      <path class="c" d="M114.12,182q0,13.33-6.72,17.89a17.83,17.83,0,0,1-8.08,2.56c-1.23.11-3.81.16-7.76.16s-6.59,0-7.76-.16a17.83,17.83,0,0,1-8.08-2.56Q69,195.25,69,182V165.93q0-10.94,5.84-16.06a16.08,16.08,0,0,1,7.76-3.51,48,48,0,0,1,9-.64,48,48,0,0,1,9,.64,16.08,16.08,0,0,1,7.76,3.51q5.84,5.12,5.84,16.06Zm-10.56-1.2V166.41q0-7-3.6-10-2.88-2.31-8.4-2.31t-8.4,2.31q-3.6,3-3.6,10v14.38q0,7.82,2.4,10.62t9.6,2.79q7.13,0,9.56-2.83T103.56,180.79Z"/>
      <path class="c" d="M165.64,182q0,13.33-6.72,17.89a17.83,17.83,0,0,1-8.08,2.56c-1.23.11-3.81.16-7.76.16s-6.59,0-7.76-.16a17.83,17.83,0,0,1-8.08-2.56q-6.72-4.63-6.72-17.89V165.93q0-10.94,5.84-16.06a16.08,16.08,0,0,1,7.76-3.51,48,48,0,0,1,9-.64,48,48,0,0,1,9,.64,16.08,16.08,0,0,1,7.76,3.51q5.83,5.12,5.84,16.06Zm-10.56-1.2V166.41q0-7-3.6-10-2.88-2.31-8.4-2.31t-8.4,2.31q-3.6,3-3.6,10v14.38q0,7.82,2.4,10.62t9.6,2.79q7.13,0,9.56-2.83T155.08,180.79Z"/>
      <path class="c" d="M235.8,182q0,13.33-6.72,17.89a17.83,17.83,0,0,1-8.08,2.56c-1.23.11-3.81.16-7.76.16s-6.59,0-7.76-.16a17.83,17.83,0,0,1-8.08-2.56q-6.72-4.63-6.72-17.89V165.93q0-10.94,5.84-16.06a16.08,16.08,0,0,1,7.76-3.51,48,48,0,0,1,9-.64,48,48,0,0,1,9,.64,16.08,16.08,0,0,1,7.76,3.51q5.83,5.12,5.84,16.06Zm-10.56-1.2V166.41q0-7-3.6-10-2.88-2.31-8.4-2.31t-8.4,2.31q-3.6,3-3.6,10v14.38q0,7.82,2.4,10.62t9.6,2.79q7.13,0,9.56-2.83T225.24,180.79Z"/>
      <path class="c" d="M287.32,182q0,13.33-6.72,17.89a17.83,17.83,0,0,1-8.08,2.56c-1.23.11-3.81.16-7.76.16s-6.59,0-7.76-.16a17.83,17.83,0,0,1-8.08-2.56q-6.72-4.63-6.72-17.89V165.93q0-10.94,5.84-16.06a16.08,16.08,0,0,1,7.76-3.51,63,63,0,0,1,17.92,0,16.08,16.08,0,0,1,7.76,3.51q5.83,5.12,5.84,16.06Zm-10.56-1.2V166.41q0-7-3.6-10-2.88-2.31-8.4-2.31t-8.4,2.31q-3.6,3-3.6,10v14.38q0,7.82,2.4,10.62t9.6,2.79q7.13,0,9.56-2.83T276.76,180.79Z"/>
      <path class="c" d="M338.84,182q0,13.33-6.72,17.89a17.83,17.83,0,0,1-8.08,2.56c-1.23.11-3.81.16-7.76.16s-6.59,0-7.76-.16a17.83,17.83,0,0,1-8.08-2.56q-6.72-4.63-6.72-17.89V165.93q0-10.94,5.84-16.06a16.08,16.08,0,0,1,7.76-3.51,63,63,0,0,1,17.92,0,16.08,16.08,0,0,1,7.76,3.51q5.83,5.12,5.84,16.06Zm-10.56-1.2V166.41q0-7-3.6-10-2.88-2.31-8.4-2.31t-8.4,2.31q-3.6,3-3.6,10v14.38q0,7.82,2.4,10.62t9.6,2.79q7.13,0,9.56-2.83T328.28,180.79Z"/>
      <path class="c" d="M383.56,180.84H368.84v14.72h-7.28V180.84H346.84V174h14.72V159.32h7.28V174h14.72Z"/>
      <path class="c" d="M163.8,231.32q0,5.69-2.44,7.68a6.57,6.57,0,0,1-4.28,1.36H144v9.92h-5.28v-23.8a4.34,4.34,0,0,1,1-3.18,4.21,4.21,0,0,1,3.1-1h13.32q3.84,0,5.56,1.68Q163.8,226,163.8,231.32Zm-5.44,0c0-1.87-.32-3.13-1-3.8a4.48,4.48,0,0,0-3.32-1h-8.52a1.72,1.72,0,0,0-1.24.36,1.86,1.86,0,0,0-.36,1.32v8h10c1.68,0,2.83-.35,3.44-1S158.36,233.15,158.36,231.28Z"/>
      <path class="c" d="M178.72,232.68h-2a4.93,4.93,0,0,0-4,1.48,6.42,6.42,0,0,0-1.08,4.16v12H167v-13.2q0-4.25,2.16-6.12t6.4-1.88h3.16Z"/>
      <path class="c" d="M185,226h-4.68v-3.72H185Zm0,24.28h-4.68v-21.2H185Z"/>
      <path class="c" d="M207.6,250.28h-4.68V237.72A6.27,6.27,0,0,0,202,234a4,4,0,0,0-3.36-1.28h-4.76a1.11,1.11,0,0,0-.8.24,1.24,1.24,0,0,0-.24.88v16.48H188.2v-18a3.36,3.36,0,0,1,.68-2.28,4.32,4.32,0,0,1,3.24-1h7.48q4,0,5.92,1.72a7,7,0,0,1,2.08,5.52Z"/>
      <path class="c" d="M222.84,250.28h-2.92a8.84,8.84,0,0,1-5.68-1.56,6.57,6.57,0,0,1-2.12-5.36V232.68H209.2v-3.6h2.92v-6.8h4.68v6.8h5.92v3.6H216.8v8.52a15.63,15.63,0,0,0,.12,2.4,3.37,3.37,0,0,0,1.12,2.16,5.77,5.77,0,0,0,3.64.92h1.16Z"/>
      <path class="c" d="M244.32,237.23a4.4,4.4,0,0,1-1,3.21,3.09,3.09,0,0,1-2.28.8H228.72a11.92,11.92,0,0,0,.28,2.92c.43,1.68,1.85,2.52,4.28,2.52h10.36v3.6H231.88q-4.6,0-6.48-2.69-1.52-2.16-1.52-7.73a24.13,24.13,0,0,1,.4-5.17A6.58,6.58,0,0,1,226.4,231q2.32-2,7.92-2,4.85,0,7,1.36Q244.32,232.21,244.32,237.23Zm-4.84-.84a3.34,3.34,0,0,0-1.32-2.82,6.65,6.65,0,0,0-4-1q-3.19,0-4.44,1.41a6,6,0,0,0-1,3.67h9.72C239.13,237.64,239.48,237.22,239.48,236.39Z"/>
      <path class="c" d="M266.16,246.56a4.47,4.47,0,0,1-.64,2.64,3.42,3.42,0,0,1-2.92,1.08h-8.36c-3.33,0-5.59-1.4-6.76-4.2a17.6,17.6,0,0,1-1-6.72c0-3.17.55-5.55,1.64-7.12q2.21-3.17,7.12-3.16h6.28v-6.8h4.68Zm-4.68-1.68v-12.2h-5.36a4.24,4.24,0,0,0-3.92,1.88,9.92,9.92,0,0,0-.92,5,13.85,13.85,0,0,0,.56,4.76q1,2.4,4.28,2.4h3.76a1.88,1.88,0,0,0,1.24-.32A2.07,2.07,0,0,0,261.48,244.88Z"/>
      <path class="c" d="M143,287.24q0,5.6-1.68,8-2.11,3-7.44,3h-5.92v6.8h-4.68V280.36a3.08,3.08,0,0,1,1.2-2.6,4.31,4.31,0,0,1,2.64-.68h7.4a8.25,8.25,0,0,1,6.24,2.32Q143,281.73,143,287.24Zm-4.84.4a12.79,12.79,0,0,0-.56-4.56,4,4,0,0,0-4.08-2.4h-4.6a1,1,0,0,0-.62.3.89.89,0,0,0-.34.7v13h5.32a4.43,4.43,0,0,0,4-2C137.83,291.81,138.12,290.12,138.12,287.64Z"/>
      <path class="c" d="M157.32,280.68h-2a4.93,4.93,0,0,0-4,1.48,6.42,6.42,0,0,0-1.08,4.16v12H145.6v-13.2q0-4.24,2.16-6.12t6.4-1.88h3.16Z"/>
      <path class="c" d="M180.92,287.6q0,6.07-2.72,8.64-2.44,2.28-8.56,2.28c-4,0-6.91-.76-8.56-2.28q-2.72-2.48-2.72-8.48,0-6.17,2.72-8.68,2.4-2.24,8.56-2.24t8.56,2.24Q180.92,281.6,180.92,287.6Zm-4.84.12q0-4.08-1.36-5.6c-1-1.12-2.71-1.68-5.08-1.68s-4.16.56-5.12,1.68-1.32,2.88-1.32,5.6.45,4.4,1.36,5.44,2.71,1.76,5.08,1.76,4-.59,5-1.76S176.08,290.31,176.08,287.72Z"/>
      <path class="c" d="M202.76,294.56a4.47,4.47,0,0,1-.64,2.64,3.42,3.42,0,0,1-2.92,1.08h-8.36c-3.33,0-5.59-1.4-6.76-4.2a17.8,17.8,0,0,1-1-6.72c0-3.17.55-5.55,1.64-7.12q2.2-3.17,7.12-3.16h6.28v-6.8h4.68Zm-4.68-1.68v-12.2h-5.36a4.24,4.24,0,0,0-3.92,1.88,9.92,9.92,0,0,0-.92,5,13.85,13.85,0,0,0,.56,4.76q1,2.4,4.28,2.4h3.76a1.88,1.88,0,0,0,1.24-.32A2.07,2.07,0,0,0,198.08,292.88Z"/>
      <path class="c" d="M225.52,294.48a3.65,3.65,0,0,1-1.12,3,5.29,5.29,0,0,1-3.32.8H213.6a8.21,8.21,0,0,1-5.52-1.6q-2.16-1.87-2.16-6.24V277.08h4.68V289.6a6.49,6.49,0,0,0,.8,3.72c.67.91,1.93,1.36,3.8,1.36h3.88a1.84,1.84,0,0,0,1.34-.42,1.77,1.77,0,0,0,.42-1.3V277.08h4.68Z"/>
      <path class="c" d="M246.6,298.28H236.4a7.83,7.83,0,0,1-6.32-2.6q-1.92-2.28-1.92-7.72c0-4.11.8-7,2.4-8.6s3.65-2.28,6.48-2.28h9.08v3.6h-7.56q-4.25,0-5.2,3.36a15.83,15.83,0,0,0-.36,4,10.52,10.52,0,0,0,.68,4.4q1.13,2.24,5.32,2.24h7.6Z"/>
      <path class="c" d="M261.28,298.28h-2.92a8.84,8.84,0,0,1-5.68-1.56,6.57,6.57,0,0,1-2.12-5.36V280.68h-2.92v-3.6h2.92v-6.8h4.68v6.8h5.92v3.6h-5.92v8.52a15.63,15.63,0,0,0,.12,2.4,3.37,3.37,0,0,0,1.12,2.16,5.77,5.77,0,0,0,3.64.92h1.16Z"/>
      <path class="c" d="M281.32,292.88c0,2.11-.59,3.61-1.76,4.52a5.56,5.56,0,0,1-3.4.88H262.6v-3.6h11.92a2,2,0,0,0,1.56-.6,1.88,1.88,0,0,0,.4-1.32,2.08,2.08,0,0,0-.6-1.6A14.35,14.35,0,0,0,272,289.8L268,288.68q-3.48-1-4.64-2.56a7,7,0,0,1,0-7.2q1.32-1.85,5.08-1.84h12v3.6H269.12a2.7,2.7,0,0,0-1.68.44,1.78,1.78,0,0,0-.56,1.48,2,2,0,0,0,.66,1.62,7.93,7.93,0,0,0,2.66,1.1l4.56,1.28q4.13,1.15,5.28,2.4A5.47,5.47,0,0,1,281.32,292.88Z"/>
    </g>
  </g>
</svg>
