<?xml version="1.0" encoding="UTF-8"?>
<!DOCTYPE svg PUBLIC "-//W3C//DTD SVG 1.1//EN" "http://www.w3.org/Graphics/SVG/1.1/DTD/svg11.dtd">
<svg xmlns="http://www.w3.org/2000/svg" width="404" height="313.27" viewBox="0 0 404 313.27">
  <defs>
    <style>
      .a {
        fill: #fff;
        fill-opacity: 0.5;
      }

      .a, .b {
        fill-rule: evenodd;
      }

      .b {
        fill: #fbbc37;
      }
    </style>
  </defs>
  <title>products</title>
  <g>
    <path class="a" d="M199.34,0l29.19,16.85L257.72,33.7v67.41L228.53,118l-29.19,16.86L170.15,118,141,101.11V33.7l29.18-16.85L199.34,0ZM151.57,91.31a5.6,5.6,0,0,0,3.15,5l19.68,9.84a5,5,0,0,0,2.46.61,5.41,5.41,0,0,0,2.54-.61l19.67-9.84a.84.84,0,0,0,.32-.16.66.66,0,0,0,.3.16l19.68,9.84a5,5,0,0,0,2.45.61,5.17,5.17,0,0,0,2.55-.61L244,96.31a5.38,5.38,0,0,0,2.31-2.07,5.72,5.72,0,0,0,.76-2.93V73a5.57,5.57,0,0,0-3.38-5.14l-19.06-8.15V42.12a5.33,5.33,0,0,0-.92-3.07A6.24,6.24,0,0,0,221.22,37l-19.68-8.45a5.06,5.06,0,0,0-2.15-.46,5.14,5.14,0,0,0-2.23.46L177.48,37A5.77,5.77,0,0,0,175,39.05a5.4,5.4,0,0,0-.91,3.07v17.6L155,67.87a6.27,6.27,0,0,0-2.55,2.07,5.59,5.59,0,0,0-.92,3.07v18.3Zm7.53-19.14,17.76,7.61,17.75-7.61-17.75-7.53L159.1,72.17Zm20.61,27.6,16.83-8.46V77.55L179.71,84.7V99.77ZM180,42l19.38,8.3L218.75,42l-19.36-8.31L180,42Zm22.13,25,16.93-7.23V48l-16.93,7.15V67Zm1.93,5.22,17.75,7.61,17.76-7.61-17.76-7.53-17.75,7.53Zm20.6,27.6,16.83-8.46V77.55L224.67,84.7Z"/>
    <path class="b" d="M0,61.23H141V33.7l29.18-16.85L199.34,0l29.19,16.85L257.72,33.7V61.23H404v252H0v-252Zm141,6.18L7.82,68V306.48H396.27V68H257.72v33.09L228.53,118l-29.19,16.86L170.15,118,141,101.11V67.41ZM199.34,3.15,171.52,19.22,143.69,35.28V99.54l27.83,16.06,27.82,16.07,27.83-16.07L255,99.54V35.28L227.17,19.22Z"/>
  </g>
</svg>
