<?xml version="1.0" encoding="UTF-8"?>
<!DOCTYPE svg PUBLIC "-//W3C//DTD SVG 1.1//EN" "http://www.w3.org/Graphics/SVG/1.1/DTD/svg11.dtd">
<svg xmlns="http://www.w3.org/2000/svg" width="404" height="313.27" viewBox="0 0 404 313.27">
  <defs>
    <style>
      .a {
        fill: #fbbc37;
      }

      .a, .b {
        fill-rule: evenodd;
      }

      .b {
        fill: #fff;
        fill-opacity: 0.5;
      }
    </style>
  </defs>
  <title>Perfect</title>
  <g>
    <path class="a" d="M0,61.23H141V33.7l29.18-16.85L199.34,0l29.19,16.85L257.72,33.7V61.23H404v252H0v-252Zm141,6.18L7.82,68V306.48H396.27V68H257.72v33.09L228.53,118l-29.19,16.86L170.15,118,141,101.11V67.41ZM199.34,3.15,171.52,19.22,143.69,35.28V99.54l27.83,16.06,27.82,16.07,27.83-16.07L255,99.54V35.28L227.17,19.22Z"/>
    <path class="b" d="M199.34,0l29.19,16.85L257.72,33.7v67.41L228.53,118l-29.19,16.86L170.15,118,141,101.11V33.7l29.18-16.85L199.34,0Zm29.11,27.26h-9.12a3.07,3.07,0,0,0-1.49.32,3.13,3.13,0,0,0-1,.89,4.28,4.28,0,0,0-.61,1.35,6.29,6.29,0,0,0-.21,1.66v70.73h16.67V31.48a4.16,4.16,0,0,0-.32-1.66,4.47,4.47,0,0,0-.89-1.35,4.66,4.66,0,0,0-1.35-.89,4.13,4.13,0,0,0-1.66-.32Zm-25,25h-9.1a3.12,3.12,0,0,0-1.51.33,4,4,0,0,0-1.1.89,3.87,3.87,0,0,0-.57,1.31,7.29,7.29,0,0,0-.16,1.62v45.77h16.59V56.44a3.84,3.84,0,0,0-.33-1.62,4.22,4.22,0,0,0-2.2-2.2,3.84,3.84,0,0,0-1.62-.33Zm-25,25h-9.18a3.24,3.24,0,0,0-1.47.33,3,3,0,0,0-1.06.89,4.51,4.51,0,0,0-.61,1.31A6.67,6.67,0,0,0,166,81.4v20.81h16.66V81.4a3.84,3.84,0,0,0-.33-1.62,4.34,4.34,0,0,0-.89-1.31,4.3,4.3,0,0,0-1.3-.89A3.92,3.92,0,0,0,178.53,77.25Z"/>
  </g>
</svg>
