<?xml version="1.0" encoding="UTF-8"?>
<!DOCTYPE svg PUBLIC "-//W3C//DTD SVG 1.1//EN" "http://www.w3.org/Graphics/SVG/1.1/DTD/svg11.dtd">
<svg xmlns="http://www.w3.org/2000/svg" width="404" height="313.27" viewBox="0 0 404 313.27">
  <defs>
    <style>
      .a {
        fill: #fff;
        fill-opacity: 0.5;
      }

      .a, .b {
        fill-rule: evenodd;
      }

      .b {
        fill: #fbbc37;
      }

      .c {
        fill: #fff;
      }
    </style>
  </defs>
  <title>Years_of_Innovations</title>
  <g>
    <path class="a" d="M199.34,0l29.19,16.85L257.72,33.7v67.41L228.53,118l-29.19,16.86L170.15,118,141,101.11V33.7l29.18-16.85L199.34,0Zm29.11,27.26h-9.12a3.07,3.07,0,0,0-1.49.32,3.13,3.13,0,0,0-1,.89,4.28,4.28,0,0,0-.61,1.35,6.29,6.29,0,0,0-.21,1.66v70.73h16.67V31.48a4.16,4.16,0,0,0-.32-1.66,4.47,4.47,0,0,0-.89-1.35,4.66,4.66,0,0,0-1.35-.89,4.13,4.13,0,0,0-1.66-.32Zm-25,25h-9.1a3.12,3.12,0,0,0-1.51.33,4,4,0,0,0-1.1.89,3.87,3.87,0,0,0-.57,1.31,7.29,7.29,0,0,0-.16,1.62v45.77h16.59V56.44a3.84,3.84,0,0,0-.33-1.62,4.22,4.22,0,0,0-2.2-2.2,3.84,3.84,0,0,0-1.62-.33Zm-25,25h-9.18a3.24,3.24,0,0,0-1.47.33,3,3,0,0,0-1.06.89,4.51,4.51,0,0,0-.61,1.31A6.67,6.67,0,0,0,166,81.4v20.81h16.66V81.4a3.84,3.84,0,0,0-.33-1.62,4.34,4.34,0,0,0-.89-1.31,4.3,4.3,0,0,0-1.3-.89A3.92,3.92,0,0,0,178.53,77.25Z"/>
    <path class="b" d="M0,61.23H141V33.7l29.18-16.85L199.34,0l29.19,16.85L257.72,33.7V61.23H404v252H0v-252Zm141,6.18L7.82,68V306.48H396.27V68H257.72v33.09L228.53,118l-29.19,16.86L170.15,118,141,101.11V67.41ZM199.34,3.15,171.52,19.22,143.69,35.28V99.54l27.83,16.06,27.82,16.07,27.83-16.07L255,99.54V35.28L227.17,19.22Z"/>
    <g>
      <path class="c" d="M171.47,202.28H160.91V158.52a5.82,5.82,0,0,0-.56-3,2.28,2.28,0,0,0-2.08-.88h-6.16v-8.4h12.08a8.16,8.16,0,0,1,5.32,1.6c1.3,1.07,2,2.88,2,5.44Z"/>
      <path class="c" d="M195.62,202.28H185.06V158.52a5.71,5.71,0,0,0-.56-3,2.26,2.26,0,0,0-2.08-.88h-6.16v-8.4h12.08a8.14,8.14,0,0,1,5.32,1.6q2,1.6,2,5.44Z"/>
      <path class="c" d="M241.86,180.84H227.14v14.72h-7.28V180.84H205.14V174h14.72V159.32h7.28V174h14.72Z"/>
      <path class="c" d="M174.26,222.28l-11.84,19.44v8.56h-5.28v-8.56L145.3,222.28H151L159.78,237l8.8-14.68Z"/>
      <path class="c" d="M194.54,237.23a4.4,4.4,0,0,1-1,3.21,3.09,3.09,0,0,1-2.28.8H178.94a12.43,12.43,0,0,0,.28,2.92q.65,2.52,4.28,2.52h10.36v3.6H182.1q-4.59,0-6.48-2.69-1.51-2.16-1.52-7.73a24.81,24.81,0,0,1,.4-5.17,6.64,6.64,0,0,1,2.12-3.73q2.32-2,7.92-2,4.85,0,7,1.36Q194.54,232.21,194.54,237.23Zm-4.84-.84a3.34,3.34,0,0,0-1.32-2.82,6.63,6.63,0,0,0-4-1q-3.19,0-4.44,1.41a6.09,6.09,0,0,0-1,3.67h9.72C189.36,237.64,189.7,237.22,189.7,236.39Z"/>
      <path class="c" d="M216.22,246.72a3.74,3.74,0,0,1-.84,2.72,4.06,4.06,0,0,1-2.92.84H202.34a5.82,5.82,0,0,1-3.84-1c-1.22-1.07-1.84-3-1.84-5.76q0-3.6,1.8-5.16a5.65,5.65,0,0,1,3.88-1.24h9.2V235.6a3.13,3.13,0,0,0-.6-2,2.78,2.78,0,0,0-2.28-.92H198.22v-3.6h12q6,0,6,6.64Zm-4.68-1.16v-4.88h-7.8a2,2,0,0,0-1.7.7,3.81,3.81,0,0,0-.54,2.3,3.44,3.44,0,0,0,.62,2.34,2,2,0,0,0,1.54.66h6.52a1.74,1.74,0,0,0,1.06-.24A1.07,1.07,0,0,0,211.54,245.56Z"/>
      <path class="c" d="M231.1,232.68h-2a4.93,4.93,0,0,0-4,1.48,6.42,6.42,0,0,0-1.08,4.16v12h-4.68v-13.2q0-4.25,2.16-6.12c1.44-1.25,3.58-1.88,6.4-1.88h3.16Z"/>
      <path class="c" d="M251.14,244.88c0,2.11-.58,3.61-1.76,4.52a5.52,5.52,0,0,1-3.4.88H232.42v-3.6h11.92a1.93,1.93,0,0,0,1.56-.6,1.88,1.88,0,0,0,.4-1.32,2.08,2.08,0,0,0-.6-1.6,14.35,14.35,0,0,0-3.84-1.36l-4.08-1.12c-2.32-.64-3.86-1.49-4.64-2.56a7,7,0,0,1,0-7.2c.88-1.23,2.58-1.84,5.08-1.84h12v3.6H238.94a2.74,2.74,0,0,0-1.68.44,1.78,1.78,0,0,0-.56,1.48,2,2,0,0,0,.66,1.62,8,8,0,0,0,2.66,1.1l4.56,1.28q4.13,1.16,5.28,2.4A5.42,5.42,0,0,1,251.14,244.88Z"/>
      <path class="c" d="M103.11,287.6q0,6.07-2.72,8.64-2.44,2.28-8.56,2.28t-8.56-2.28c-1.82-1.65-2.72-4.48-2.72-8.48s.9-7,2.72-8.68q2.4-2.24,8.56-2.24c4.1,0,7,.75,8.56,2.24Q103.11,281.6,103.11,287.6Zm-4.84.12c0-2.72-.46-4.59-1.36-5.6s-2.71-1.68-5.08-1.68-4.16.56-5.12,1.68-1.32,2.88-1.32,5.6.45,4.4,1.36,5.44,2.7,1.76,5.08,1.76,4-.59,5-1.76S98.27,290.31,98.27,287.72Z"/>
      <path class="c" d="M117.91,280.68h-5.8v17.6h-4.68v-17.6h-3v-3.6h3a6.81,6.81,0,0,1,2.2-5.33q2.4-2,8.28-1.75v3.44c-2.43,0-4,.21-4.6.64a3.27,3.27,0,0,0-1.2,3h5.8Z"/>
      <path class="c" d="M135.22,298.28H130v-28h5.27Z"/>
      <path class="c" d="M158.62,298.28H154V285.72a6.34,6.34,0,0,0-.88-3.76,4,4,0,0,0-3.37-1.28H145a1.12,1.12,0,0,0-.81.24,1.29,1.29,0,0,0-.23.88v16.48h-4.69v-18a3.31,3.31,0,0,1,.69-2.28,4.28,4.28,0,0,1,3.23-1h7.48q4,0,5.92,1.72a7,7,0,0,1,2.08,5.52Z"/>
      <path class="c" d="M181.22,298.28h-4.68V285.72a6.27,6.27,0,0,0-.88-3.76,4,4,0,0,0-3.36-1.28h-4.76a1.11,1.11,0,0,0-.8.24,1.24,1.24,0,0,0-.24.88v16.48h-4.68v-18a3.36,3.36,0,0,1,.68-2.28,4.32,4.32,0,0,1,3.24-1h7.48q4,0,5.92,1.72a7,7,0,0,1,2.08,5.52Z"/>
      <path class="c" d="M206.42,287.6c0,4-.9,6.93-2.72,8.64-1.62,1.52-4.48,2.28-8.56,2.28s-6.9-.76-8.56-2.28q-2.72-2.48-2.72-8.48,0-6.17,2.72-8.68c1.6-1.49,4.46-2.24,8.56-2.24s7,.75,8.56,2.24C205.52,280.76,206.42,283.6,206.42,287.6Zm-4.84.12q0-4.08-1.36-5.6-1.51-1.68-5.08-1.68T190,282.12q-1.32,1.51-1.32,5.6c0,2.59.46,4.4,1.36,5.44s2.71,1.76,5.08,1.76,4-.59,5-1.76S201.58,290.31,201.58,287.72Z"/>
      <path class="c" d="M229.18,277.08l-8.08,19.56a3.11,3.11,0,0,1-3.24,1.88,3.16,3.16,0,0,1-3.28-1.88l-8.08-19.56h4.84l6,15.72c.22.56.4.84.56.84s.35-.28.56-.84l5.92-15.72Z"/>
      <path class="c" d="M248.86,294.72a3.74,3.74,0,0,1-.84,2.72,4.06,4.06,0,0,1-2.92.84H235a5.82,5.82,0,0,1-3.84-1c-1.22-1.07-1.84-3-1.84-5.76q0-3.6,1.8-5.16a5.65,5.65,0,0,1,3.88-1.24h9.2V283.6a3.13,3.13,0,0,0-.6-2,2.78,2.78,0,0,0-2.28-.92H230.86v-3.6h12q6,0,6,6.64Zm-4.68-1.16v-4.88h-7.8a2,2,0,0,0-1.7.7,3.81,3.81,0,0,0-.54,2.3,3.44,3.44,0,0,0,.62,2.34,2,2,0,0,0,1.54.66h6.52a1.74,1.74,0,0,0,1.06-.24A1.07,1.07,0,0,0,244.18,293.56Z"/>
      <path class="c" d="M264.06,298.28h-2.92a8.86,8.86,0,0,1-5.68-1.56,6.57,6.57,0,0,1-2.12-5.36V280.68h-2.92v-3.6h2.92v-6.8H258v6.8h5.92v3.6H258v8.52a15.63,15.63,0,0,0,.12,2.4,3.42,3.42,0,0,0,1.12,2.16,5.77,5.77,0,0,0,3.64.92h1.16Z"/>
      <path class="c" d="M270.34,274h-4.68v-3.72h4.68Zm0,24.28h-4.68v-21.2h4.68Z"/>
      <path class="c" d="M295.54,287.6c0,4-.9,6.93-2.72,8.64-1.62,1.52-4.48,2.28-8.56,2.28s-6.9-.76-8.56-2.28-2.72-4.48-2.72-8.48.91-7,2.72-8.68c1.6-1.49,4.46-2.24,8.56-2.24s7,.75,8.56,2.24C294.64,280.76,295.54,283.6,295.54,287.6Zm-4.84.12q0-4.08-1.36-5.6-1.51-1.68-5.08-1.68t-5.12,1.68q-1.32,1.51-1.32,5.6c0,2.59.46,4.4,1.36,5.44s2.71,1.76,5.08,1.76,4-.59,5-1.76S290.7,290.31,290.7,287.72Z"/>
      <path class="c" d="M317.58,298.28H312.9V285.72A6.27,6.27,0,0,0,312,282a4,4,0,0,0-3.36-1.28H303.9a1.11,1.11,0,0,0-.8.24,1.24,1.24,0,0,0-.24.88v16.48h-4.68v-18a3.36,3.36,0,0,1,.68-2.28,4.32,4.32,0,0,1,3.24-1h7.48q4,0,5.92,1.72a7,7,0,0,1,2.08,5.52Z"/>
    </g>
  </g>
</svg>
